<svg width="40" height="40" viewBox="0 0 40 40" fill="none" xmlns="http://www.w3.org/2000/svg">
<g clip-path="url(#clip0_226_7)">
<path d="M40 20.1216C40 9.07588 31.0457 0.121582 20 0.121582C8.9543 0.121582 0 9.07588 0 20.1216C0 30.1042 7.31375 38.3782 16.875 39.8786V25.9028H11.7969V20.1216H16.875V15.7153C16.875 10.7028 19.8609 7.93408 24.4293 7.93408C26.6175 7.93408 28.9062 8.32471 28.9062 8.32471V13.2466H26.3843C23.8998 13.2466 23.125 14.7882 23.125 16.3699V20.1216H28.6719L27.7852 25.9028H23.125V39.8786C32.6863 38.3782 40 30.1042 40 20.1216Z" fill="white"/>
</g>
<defs>
<clipPath id="clip0_226_7">
<rect width="40" height="40" fill="white"/>
</clipPath>
</defs>
</svg>
