<svg width="40" height="40" viewBox="0 0 40 40" fill="none" xmlns="http://www.w3.org/2000/svg">
<g clip-path="url(#clip0_226_15)">
<path d="M30.4771 10.4774C30.4771 4.69043 25.7866 0 19.9988 0C14.2111 0 9.52148 4.69043 9.52148 10.4774C9.52148 18.7684 19.9988 31.0365 19.9988 31.0365C19.9988 31.0365 30.4771 18.7258 30.4771 10.4774ZM14.8317 9.85175C14.8317 6.99718 17.1459 4.68374 19.9997 4.68374C22.8534 4.68374 25.1677 6.99718 25.1677 9.85175C25.1677 12.7063 22.8534 15.0198 19.9997 15.0198C17.1459 15.0198 14.8317 12.7063 14.8317 9.85175Z" fill="white"/>
<path d="M19.9987 12.3924C21.402 12.3924 22.5396 11.2548 22.5396 9.85148C22.5396 8.44816 21.402 7.31055 19.9987 7.31055C18.5954 7.31055 17.4578 8.44816 17.4578 9.85148C17.4578 11.2548 18.5954 12.3924 19.9987 12.3924Z" fill="white"/>
<path d="M25.9228 27.3921C25.0689 28.6258 24.2676 29.7013 23.6002 30.5645C30.221 30.9618 34.5602 32.3911 36.1744 33.455C34.2833 34.7021 28.6637 36.4551 20.0004 36.4551C11.3372 36.4551 5.71751 34.7012 3.82645 33.455C5.44067 32.392 9.77648 30.9634 16.3906 30.5653C15.7215 29.7022 14.9194 28.6274 14.0646 27.3938C5.91741 28.1959 0 30.6063 0 33.4542C0 36.9586 8.95515 39.8007 20.0004 39.8007C31.0465 39.8007 40 36.9595 40 33.4542C40.0017 30.6046 34.0776 28.1933 25.9228 27.3921Z" fill="white"/>
</g>
<defs>
<clipPath id="clip0_226_15">
<rect width="40" height="40" fill="white"/>
</clipPath>
</defs>
</svg>
