<svg width="40" height="40" viewBox="0 0 40 40" fill="none" xmlns="http://www.w3.org/2000/svg">
<g clip-path="url(#clip0_381_219)">
<path d="M34.1431 5.85797C30.5225 2.23758 25.5189 0 20.0055 0C14.4811 0 9.47688 2.23758 5.8568 5.85797C2.24727 9.47961 0 14.4849 0 19.9998C0 25.5261 2.24727 30.5203 5.8568 34.142C9.47688 37.7627 14.4811 40 20.0055 40C25.5188 40 30.5225 37.7627 34.1431 34.142C37.7523 30.5203 40 25.5261 40 19.9998C40 14.4849 37.7523 9.47961 34.1431 5.85797Z" fill="white"/>
<g clip-path="url(#clip1_381_219)">
<path d="M17.8575 29.8755H22.1217V40H17.8575V29.8755ZM8 19.4981H15.2557L10.0976 14.3273L12.9518 11.2418L17.8691 16.5571V9H22.1331V16.5571L27.0504 11.2539L29.9023 14.3273L24.7466 19.486H32V23.7527H24.7052L29.8955 29.0559L27.0504 32.0693L20.0011 24.6205L12.9518 32.0693L10.0976 29.0681L15.29 23.7648H8V19.4981Z" fill="#01162A"/>
</g>
</g>
<defs>
<clipPath id="clip0_381_219">
<rect width="40" height="40" fill="white"/>
</clipPath>
<clipPath id="clip1_381_219">
<rect width="24" height="31" fill="white" transform="translate(8 9)"/>
</clipPath>
</defs>
</svg>
