<svg width="40" height="40" viewBox="0 0 40 40" fill="none" xmlns="http://www.w3.org/2000/svg">
<g clip-path="url(#clip0_226_3)">
<path d="M34.1431 5.85797C30.5225 2.23758 25.5189 0 20.0055 0C14.4811 0 9.47688 2.23758 5.8568 5.85797C2.24727 9.47961 0 14.4849 0 19.9998C0 25.5261 2.24727 30.5203 5.8568 34.142C9.47688 37.7627 14.4811 40 20.0055 40C25.5188 40 30.5225 37.7627 34.1431 34.142C37.7523 30.5203 40 25.5261 40 19.9998C40 14.4849 37.7523 9.47961 34.1431 5.85797Z" fill="white"/>
<path fill-rule="evenodd" clip-rule="evenodd" d="M21.6327 13.1345C21.1901 13.0785 20.6254 12.8904 20.5259 13.4773C20.4153 14.0863 21.046 14.0425 21.4557 14.1309C24.2458 14.7402 25.1978 15.7362 25.6628 18.4391C25.6845 18.55 25.6962 18.6936 25.6962 18.8154C25.7293 19.1364 25.8067 19.424 26.2937 19.336C26.5375 19.3025 26.626 19.17 26.6371 18.9819C26.6703 18.8154 26.6371 18.5937 26.6593 18.4391C26.6703 15.8359 24.4007 13.4773 21.6327 13.1345ZM21.8877 15.2716C21.5998 15.2716 21.3117 15.3047 21.2012 15.6151C21.0349 16.058 21.3785 16.1795 21.7213 16.2348C22.8618 16.4012 23.4598 17.0659 23.5815 18.173C23.5925 18.328 23.6482 18.4499 23.7143 18.5501C23.8141 18.6597 23.9357 18.7047 24.0907 18.6937C24.1903 18.6937 24.2678 18.6597 24.3339 18.627C24.5227 18.483 24.5556 18.2172 24.5335 17.9402C24.5557 16.6895 23.1164 15.238 21.8877 15.2716ZM27.6666 24.042C27.1021 23.5987 26.4819 23.2003 25.9064 22.7905C24.7219 21.9929 23.6369 21.9274 22.7623 23.2223C22.2641 23.9536 21.5663 23.9867 20.8469 23.6652C18.843 22.7905 17.3041 21.4284 16.3964 19.424C16.2633 19.114 16.175 18.8154 16.1637 18.5385C16.1304 18.0068 16.3518 17.5422 16.9499 17.132C17.448 16.8109 17.9349 16.4232 17.9019 15.7034C17.8578 14.7623 15.5324 11.6282 14.603 11.2846C14.2262 11.1516 13.8498 11.1741 13.4624 11.2846C11.3035 12.004 10.4178 13.7324 11.2702 15.7806C11.7573 16.9328 12.2778 18.0068 12.8977 19.0142C15.5438 23.444 19.4406 26.6779 24.4671 28.7928C24.8103 28.9368 25.1978 29.0034 25.408 29.0477C26.8142 29.0697 28.4524 27.7298 28.9286 26.4227C29.3937 25.1495 28.4197 24.6625 27.6666 24.042ZM20.7475 11.9166C25.2529 12.6024 27.3233 14.7063 27.8988 19.1476C27.8988 19.1921 27.8988 19.2253 27.8988 19.2577C27.9324 19.6674 27.855 20.1995 28.3972 20.1995C28.8736 20.2106 28.8957 19.8563 28.8957 19.5128C28.8736 19.3913 28.8736 19.2916 28.8736 19.1922C28.9288 14.9944 25.1979 11.097 20.8803 10.9637C20.537 11.0189 19.8726 10.742 19.8175 11.4619C19.8061 11.9387 20.3707 11.8716 20.7475 11.9166Z" fill="#01162A"/>
</g>
<defs>
<clipPath id="clip0_226_3">
<rect width="40" height="40" fill="white"/>
</clipPath>
</defs>
</svg>
