<svg width="40" height="40" viewBox="0 0 40 40" fill="none" xmlns="http://www.w3.org/2000/svg">
<g clip-path="url(#clip0_197_51)">
<path d="M34.1431 5.85797C30.5225 2.23758 25.5189 0 20.0055 0C14.4811 0 9.47688 2.23758 5.8568 5.85797C2.24727 9.47961 0 14.4849 0 19.9998C0 25.5261 2.24727 30.5203 5.8568 34.142C9.47688 37.7627 14.4811 40 20.0055 40C25.5188 40 30.5225 37.7627 34.1431 34.142C37.7523 30.5203 40 25.5261 40 19.9998C40 14.4849 37.7523 9.47961 34.1431 5.85797Z" fill="#002448"/>
<path fill-rule="evenodd" clip-rule="evenodd" d="M21.6327 13.1343C21.1901 13.0783 20.6254 12.8901 20.5259 13.4771C20.4153 14.0861 21.046 14.0423 21.4557 14.1306C24.2458 14.74 25.1978 15.7359 25.6628 18.4389C25.6845 18.5498 25.6962 18.6933 25.6962 18.8151C25.7293 19.1362 25.8067 19.4237 26.2937 19.3358C26.5375 19.3023 26.626 19.1698 26.6371 18.9816C26.6703 18.8151 26.6371 18.5935 26.6593 18.4389C26.6703 15.8357 24.4007 13.4771 21.6327 13.1343ZM21.8877 15.2713C21.5998 15.2713 21.3117 15.3044 21.2012 15.6148C21.0349 16.0578 21.3785 16.1793 21.7213 16.2345C22.8618 16.401 23.4598 17.0656 23.5815 18.1727C23.5925 18.3277 23.6482 18.4497 23.7143 18.5498C23.8141 18.6594 23.9357 18.7044 24.0907 18.6934C24.1903 18.6934 24.2678 18.6594 24.3339 18.6267C24.5227 18.4827 24.5556 18.2169 24.5335 17.94C24.5557 16.6893 23.1164 15.2378 21.8877 15.2713ZM27.6666 24.0418C27.1021 23.5984 26.4819 23.2001 25.9064 22.7902C24.7219 21.9926 23.6369 21.9272 22.7623 23.2221C22.2641 23.9533 21.5663 23.9865 20.8469 23.665C18.843 22.7902 17.3041 21.4282 16.3964 19.4237C16.2633 19.1137 16.175 18.8151 16.1637 18.5383C16.1304 18.0066 16.3518 17.5419 16.9499 17.1317C17.448 16.8107 17.9349 16.423 17.9019 15.7031C17.8578 14.762 15.5324 11.628 14.603 11.2844C14.2262 11.1514 13.8498 11.1739 13.4624 11.2844C11.3035 12.0037 10.4178 13.7322 11.2702 15.7804C11.7573 16.9326 12.2778 18.0066 12.8977 19.014C15.5438 23.4437 19.4406 26.6776 24.4671 28.7926C24.8103 28.9366 25.1978 29.0032 25.408 29.0474C26.8142 29.0694 28.4524 27.7296 28.9286 26.4224C29.3937 25.1493 28.4197 24.6623 27.6666 24.0418ZM20.7475 11.9163C25.2529 12.6022 27.3233 14.7061 27.8988 19.1473C27.8988 19.1919 27.8988 19.2251 27.8988 19.2574C27.9324 19.6672 27.855 20.1993 28.3972 20.1993C28.8736 20.2104 28.8957 19.8561 28.8957 19.5126C28.8736 19.3911 28.8736 19.2913 28.8736 19.1919C28.9288 14.9941 25.1979 11.0968 20.8803 10.9634C20.537 11.0187 19.8726 10.7418 19.8175 11.4616C19.8061 11.9384 20.3707 11.8713 20.7475 11.9163Z" fill="white"/>
</g>
<defs>
<clipPath id="clip0_197_51">
<rect width="40" height="40" fill="white"/>
</clipPath>
</defs>
</svg>
