<svg width="40" height="40" viewBox="0 0 40 40" fill="none" xmlns="http://www.w3.org/2000/svg">
<g clip-path="url(#clip0_197_63)">
<path d="M30.6295 10.5298C30.6295 4.71389 25.9156 0 20.0989 0C14.2821 0 9.56909 4.71389 9.56909 10.5298C9.56909 18.8623 20.0989 31.1917 20.0989 31.1917C20.0989 31.1917 30.6295 18.8194 30.6295 10.5298ZM14.9058 9.90102C14.9058 7.03217 17.2317 4.70717 20.0997 4.70717C22.9677 4.70717 25.2936 7.03217 25.2936 9.90102C25.2936 12.7699 22.9677 15.0949 20.0997 15.0949C17.2317 15.0949 14.9058 12.7699 14.9058 9.90102Z" fill="#002448"/>
<path d="M20.0988 12.4547C21.5091 12.4547 22.6524 11.3114 22.6524 9.90105C22.6524 8.49072 21.5091 7.34741 20.0988 7.34741C18.6885 7.34741 17.5452 8.49072 17.5452 9.90105C17.5452 11.3114 18.6885 12.4547 20.0988 12.4547Z" fill="#002448"/>
<path d="M26.0525 27.5295C25.1943 28.7694 24.389 29.8503 23.7182 30.7178C30.3722 31.1171 34.733 32.5536 36.3553 33.6228C34.4548 34.8761 28.807 36.6379 20.1004 36.6379C11.3939 36.6379 5.74611 34.8752 3.84559 33.6228C5.46788 32.5544 9.82537 31.1188 16.4726 30.7186C15.8001 29.8512 14.994 28.7711 14.135 27.5312C5.947 28.3373 0 30.7598 0 33.622C0 37.1439 8.99994 40.0002 20.1004 40.0002C31.2018 40.0002 40.2001 37.1448 40.2001 33.622C40.2017 30.7582 34.248 28.3348 26.0525 27.5295Z" fill="#002448"/>
</g>
<defs>
<clipPath id="clip0_197_63">
<rect width="40" height="40" fill="white"/>
</clipPath>
</defs>
</svg>
