<svg width="40" height="40" viewBox="0 0 40 40" fill="none" xmlns="http://www.w3.org/2000/svg">
<g clip-path="url(#clip0_197_57)">
<path d="M23.0453 16.5938H22.2895C22.2619 16.5937 22.2346 16.5992 22.2091 16.6097C22.1836 16.6203 22.1604 16.6357 22.1409 16.6552C22.1214 16.6747 22.106 16.6979 22.0954 16.7234C22.0849 16.7489 22.0795 16.7762 22.0795 16.8038V19.6709L19.8743 16.7178C19.8456 16.6794 19.8083 16.6482 19.7655 16.6267C19.7226 16.6052 19.6753 16.5941 19.6274 16.5941H18.9289C18.9013 16.5941 18.874 16.5995 18.8486 16.61C18.8231 16.6206 18.7999 16.6361 18.7805 16.6556C18.761 16.6751 18.7455 16.6982 18.735 16.7237C18.7244 16.7492 18.719 16.7765 18.719 16.8041V21.573C18.719 21.6287 18.7411 21.6821 18.7805 21.7215C18.8198 21.7609 18.8732 21.783 18.9289 21.783H19.6849C19.7406 21.783 19.794 21.7609 19.8334 21.7215C19.8728 21.6821 19.8949 21.6287 19.8949 21.573V18.7327L22.0795 21.6586C22.1081 21.697 22.1453 21.7282 22.1882 21.7497C22.231 21.7712 22.2783 21.7824 22.3262 21.7823H23.0453C23.101 21.7823 23.1544 21.7602 23.1938 21.7208C23.2332 21.6815 23.2554 21.628 23.2554 21.5723V16.8034C23.2553 16.7477 23.2331 16.6944 23.1937 16.6551C23.1543 16.6158 23.101 16.5937 23.0453 16.5938Z" fill="#002448"/>
<path d="M15.8977 20.6063H13.8092V16.8033C13.8092 16.7757 13.8037 16.7484 13.7932 16.7229C13.7827 16.6974 13.7672 16.6743 13.7477 16.6548C13.7282 16.6353 13.7051 16.6198 13.6796 16.6092C13.6541 16.5987 13.6268 16.5933 13.5992 16.5933H12.8432C12.8156 16.5933 12.7883 16.5987 12.7629 16.6092C12.7374 16.6198 12.7143 16.6353 12.6948 16.6548C12.6753 16.6743 12.6598 16.6974 12.6493 16.7229C12.6387 16.7484 12.6333 16.7757 12.6333 16.8033V21.5722C12.6333 21.6279 12.6554 21.6813 12.6948 21.7207C12.7341 21.7601 12.7875 21.7822 12.8432 21.7822H15.8979C15.9536 21.7822 16.007 21.7601 16.0464 21.7207C16.0858 21.6814 16.108 21.6279 16.108 21.5722V20.8163C16.108 20.7887 16.1025 20.7614 16.092 20.7359C16.0814 20.7104 16.0659 20.6872 16.0464 20.6677C16.0268 20.6482 16.0037 20.6327 15.9781 20.6222C15.9526 20.6117 15.9253 20.6063 15.8977 20.6063Z" fill="#002448"/>
<path d="M16.9908 16.5933H17.7467C17.8024 16.5933 17.8558 16.6154 17.8952 16.6548C17.9346 16.6942 17.9567 16.7476 17.9567 16.8033V21.5722C17.9567 21.6279 17.9346 21.6814 17.8952 21.7207C17.8558 21.7601 17.8024 21.7822 17.7467 21.7822H16.9908C16.9351 21.7822 16.8817 21.7601 16.8423 21.7207C16.8029 21.6813 16.7808 21.6279 16.7808 21.5722V16.8033C16.7808 16.7476 16.8029 16.6941 16.8423 16.6548C16.8817 16.6154 16.9351 16.5933 16.9908 16.5933Z" fill="#002448"/>
<path d="M20 0C8.9543 0 0 8.9543 0 20C0 31.0457 8.9543 40 20 40C31.0457 40 40 31.0457 40 20C40 8.9543 31.0457 0 20 0ZM25.6569 27.0947C22.735 29.4259 20.6688 30.4821 19.6144 30.9277C19.5405 30.9588 19.4594 30.9692 19.38 30.9576C19.3007 30.9461 19.226 30.913 19.164 30.862C19.1021 30.811 19.0553 30.744 19.0288 30.6683C19.0022 30.5926 18.9968 30.5111 19.0133 30.4326C19.1225 29.8992 19.2039 29.3605 19.2572 28.8186C19.2828 28.5664 19.2088 28.3141 19.0511 28.1156C18.8934 27.9171 18.6643 27.7881 18.4128 27.7561C13.1791 27.0859 9.0625 23.4423 9.0625 18.9964C9.0625 14.0712 13.9594 10.0785 20 10.0785C26.0406 10.0785 30.9375 14.0712 30.9375 18.9964C30.9375 22.3791 28.7125 24.6568 25.6569 27.0947Z" fill="#002448"/>
<path d="M27.2723 16.5938H24.2176C24.1901 16.5937 24.1627 16.5992 24.1373 16.6097C24.1118 16.6203 24.0886 16.6357 24.0691 16.6552C24.0496 16.6747 24.0341 16.6979 24.0236 16.7234C24.013 16.7489 24.0076 16.7762 24.0076 16.8038V21.5727C24.0076 21.6284 24.0297 21.6819 24.0691 21.7212C24.1085 21.7606 24.1619 21.7827 24.2176 21.7827H27.2723C27.2999 21.7827 27.3272 21.7773 27.3527 21.7667C27.3782 21.7562 27.4014 21.7407 27.4209 21.7212C27.4404 21.7017 27.4559 21.6785 27.4664 21.653C27.477 21.6276 27.4824 21.6002 27.4824 21.5727V20.8164C27.4824 20.7888 27.477 20.7615 27.4664 20.736C27.4559 20.7105 27.4404 20.6874 27.4209 20.6679C27.4014 20.6484 27.3782 20.6329 27.3527 20.6224C27.3272 20.6118 27.2999 20.6064 27.2723 20.6064H25.1838V19.7758H27.2723C27.328 19.7758 27.3815 19.7537 27.4209 19.7143C27.4602 19.6749 27.4824 19.6215 27.4824 19.5658V18.8098C27.4824 18.7823 27.477 18.7549 27.4664 18.7295C27.4559 18.704 27.4404 18.6808 27.4209 18.6613C27.4014 18.6418 27.3782 18.6263 27.3527 18.6158C27.3272 18.6052 27.2999 18.5998 27.2723 18.5998H25.1838V17.7693H27.2723C27.2999 17.7693 27.3272 17.7639 27.3527 17.7533C27.3782 17.7427 27.4014 17.7273 27.4209 17.7078C27.4404 17.6883 27.4559 17.6651 27.4664 17.6396C27.477 17.6141 27.4824 17.5868 27.4824 17.5592V16.8034C27.4823 16.7477 27.4601 16.6944 27.4207 16.6551C27.3813 16.6158 27.328 16.5937 27.2723 16.5938Z" fill="#002448"/>
</g>
<defs>
<clipPath id="clip0_197_57">
<rect width="40" height="40" fill="white"/>
</clipPath>
</defs>
</svg>
