<svg width="1454" height="33" viewBox="0 0 1454 33" fill="none" xmlns="http://www.w3.org/2000/svg">
<g filter="url(#filter0_d_183_36)">
<path d="M9.275 6.525L10.525 5.425C12.4 6.3 14.7 7.7 15.825 8.75L14.5 9.975C13.425 8.925 11.15 7.45 9.275 6.525ZM20.825 3.125H21.2L21.525 3.025L22.75 3.775C19.5 9.6 12.1 13.1 5.5 14.55C5.325 14.075 4.95 13.3 4.6 12.9C10.9 11.725 18.1 8.35 20.825 3.425V3.125ZM12.475 3.125H21.3V4.7H12.475V3.125ZM14.325 0.974999L16.425 1.425C14.125 4.075 10.725 6.55 6.075 8.4C5.8 7.95 5.225 7.325 4.8 7C9.3 5.425 12.6 3.075 14.325 0.974999ZM12.475 15.7L13.85 14.625C15.825 15.65 18.225 17.225 19.425 18.425L17.95 19.625C16.825 18.45 14.45 16.775 12.475 15.7ZM24.475 11.875H24.85L25.2 11.775L26.425 12.45C23.275 19.75 15.475 22.875 7.3 24.075C7.175 23.55 6.8 22.775 6.5 22.35C14.225 21.425 21.775 18.45 24.475 12.15V11.875ZM16.35 11.875H24.975V13.475H16.35V11.875ZM18.375 9.525L20.45 10C17.925 12.95 13.975 15.675 8.5 17.6C8.275 17.175 7.725 16.5 7.325 16.15C12.625 14.5 16.425 11.9 18.375 9.525ZM46.125 2.9H47.925V22.85H46.125V2.9ZM39.9 5.425H53.75V6.95H39.9V5.425ZM39.225 21.95H54.225V23.5H39.225V21.95ZM40.65 18.45H53.375V19.975H40.65V18.45ZM52.575 1.325L53.7 2.725C50.375 3.475 45.075 3.875 40.775 3.975C40.75 3.575 40.525 2.925 40.35 2.525C44.525 2.375 49.725 1.975 52.575 1.325ZM42.625 13.25V15.275H51.525V13.25H42.625ZM42.625 10.05V12.025H51.525V10.05H42.625ZM40.95 8.65H53.275V16.675H40.95V8.65ZM35.425 3.075H37.25V23.95H35.425V3.075ZM31.325 8.05H40.4V9.825H31.325V8.05ZM35.525 8.725L36.7 9.225C35.7 12.75 33.7 17.125 31.775 19.45C31.6 18.925 31.15 18.15 30.825 17.725C32.625 15.725 34.625 11.825 35.525 8.725ZM39.125 1.375L40.45 2.825C38.15 3.75 34.65 4.45 31.75 4.85C31.65 4.425 31.4 3.825 31.175 3.4C34 2.925 37.3 2.225 39.125 1.375ZM37.175 11.275C37.8 11.825 40.15 14.2 40.65 14.825L39.55 16.3C38.95 15.275 37.075 12.9 36.3 12.025L37.175 11.275ZM63.875 0.999999H65.475V5.125H63.875V0.999999ZM64.525 2.1H69.75V3.35H64.525V2.1ZM62.525 4.575H68.25V5.825H61.5L62.525 4.575ZM67.8 4.575H68.125L68.425 4.525L69.425 5.075C67.55 8.825 63.25 11.05 59.1 12.125C58.9 11.725 58.525 11.175 58.225 10.85C62.075 10 66.25 7.925 67.8 4.85V4.575ZM60.45 7.025L61.425 6.175C62.7 6.725 64.3 7.6 65.125 8.3L64.125 9.225C63.35 8.575 61.75 7.625 60.45 7.025ZM61.975 4.2L63.4 4.625C62.35 6.025 60.625 7.375 59.05 8.225C58.8 7.975 58.225 7.475 57.875 7.25C59.475 6.5 61.075 5.4 61.975 4.2ZM70.775 2.1H78.55V3.475H70.775V2.1ZM78.1 2.1H78.45L78.725 2.025L79.8 2.5C78.375 6.3 75.025 8.775 71.6 9.975C71.4 9.575 70.975 8.95 70.65 8.625C73.8 7.675 76.925 5.4 78.1 2.35V2.1ZM70.7 5.45L71.775 4.4C74.875 5.8 78.7 8.075 80.625 9.75L79.475 10.975C77.625 9.275 73.825 6.925 70.7 5.45ZM69.625 9.9C67.375 11.9 63.2 13.975 59.05 15.2C58.875 14.8 58.525 14.225 58.225 13.875C62.45 12.75 66.625 10.725 68.775 8.65H70.3C73.15 10.975 77.525 12.775 81.35 13.575C81 13.975 80.625 14.6 80.425 15C76.75 14.075 72.25 12.075 69.625 9.9ZM64 13.875H76.675V19.625H64V18.475H74.9V15.025H64V13.875ZM63.025 13.875H64.8V22.6L63.025 22.75V13.875ZM77.625 18.5L79 19.375C77.425 20.375 75.425 21.425 73.85 22.075L72.825 21.325C74.375 20.625 76.45 19.4 77.625 18.5ZM69.95 18.925C71.8 21.175 76.025 22.3 80.925 22.625C80.575 22.95 80.175 23.575 79.975 24.025C74.9 23.55 70.65 22.125 68.55 19.35L69.95 18.925ZM64 16.175H75.5V17.225H64V16.175ZM66.45 11.85H72.975V13H66.45V11.85ZM60.2 22.225C62.85 22 66.95 21.625 70.925 21.2V22.625C67.175 23.025 63.2 23.45 60.425 23.725L60.2 22.225ZM98.225 5.55H106.8V7.25H98.225V5.55ZM98.775 0.999999L100.625 1.275C99.85 5.575 98.55 9.525 96.7 12.1C96.375 11.825 95.525 11.275 95.075 11.05C96.975 8.675 98.15 4.925 98.775 0.999999ZM101.925 6.225H102.825V10.55C102.825 12.525 103.6 19.2 108.55 22.425C108.225 22.825 107.65 23.6 107.375 24.05C103.475 21.45 102.15 16.5 101.9 14.45C101.625 16.475 100.175 21.35 95.975 24.05C95.725 23.625 95.2 22.875 94.85 22.525C100.2 19.2 100.975 12.625 100.975 10.55V6.225H101.925ZM106.325 5.55H106.625L106.925 5.45L108.175 5.8C107.7 8.075 106.95 10.65 106.2 12.275L104.7 11.75C105.35 10.275 105.95 7.825 106.325 5.9V5.55ZM90.425 5.25H92.1V8.225H90.425V5.25ZM87.175 7.55H88.875V21.625H87.175V7.55ZM88.175 10.9H94.4V12.25H88.175V10.9ZM85.35 21.25C87.5 20.7 90.75 19.75 93.875 18.8L94.1 20.35C91.275 21.3 88.325 22.275 86 23.025L85.35 21.25ZM91.7 16.85L93.225 16.275C94.175 17.875 95.2 19.975 95.6 21.275L93.975 21.975C93.6 20.65 92.625 18.45 91.7 16.85ZM88.175 7.55H95.25V15.7H88.175V14.3H93.55V8.95H88.175V7.55ZM90.025 1.025H91.025V1.425H91.6V1.925C90.5 3.85 88.7 6.45 85.925 8.575C85.675 8.175 85.175 7.575 84.8 7.325C87.325 5.475 89.075 3 90.025 1.025ZM90.525 1.025H91.875C93.4 2.35 95.275 4.25 96.225 5.5L94.9 6.75C94.025 5.55 92.3 3.525 90.875 2.275H90.525V1.025ZM119.025 3.875V8.625H129.025V3.875H119.025ZM117.2 2.075H130.925V10.425H117.2V2.075ZM113.575 13.075H122.475V23.8H120.6V14.875H115.35V24H113.575V13.075ZM125.2 13.075H134.6V23.85H132.725V14.875H127V24H125.2V13.075ZM114.375 20.85H121.35V22.65H114.375V20.85ZM126.125 20.85H133.55V22.65H126.125V20.85ZM148.45 17.15H162.55V18.8H148.45V17.15ZM156.875 13.65H158.65V23.975H156.875V13.65ZM154.425 0.924999L156.55 1.35C155.925 2.475 155.2 3.75 154.65 4.55L153.125 4.125C153.6 3.2 154.15 1.875 154.425 0.924999ZM154.85 4.35H156.475V8.425C156.475 11.425 155.675 14.8 150.625 16.975C150.35 16.65 149.75 16.15 149.375 15.9C154.15 13.875 154.85 10.9 154.85 8.375V4.35ZM141.95 7.875H148.925V9.525H141.95V7.875ZM145.225 1.025H146.875V8.875H145.225V1.025ZM142.05 13.2H147.65V24H145.975V14.825H142.05V13.2ZM141.15 1.525H142.8V11.1C142.8 15.1 142.525 20.275 141.1 24.05C140.725 23.85 139.975 23.575 139.475 23.425C140.925 19.825 141.15 14.775 141.15 11.1V1.525ZM151.225 8.925V11.575H160.1V8.925H151.225ZM151.225 4.9V7.5H160.1V4.9H151.225ZM149.525 3.4H161.85V13.05H149.525V3.4ZM173.1 9.15H189.725V10.9H173.1V9.15ZM181.875 4.25H188.525V5.95H181.875V4.25ZM180.875 0.999999H182.7V10.25H180.875V0.999999ZM176.075 3.125H177.8V10.1H176.075V3.125ZM176.875 11.85L178.6 12.35C177.6 14.25 176.05 16.3 174.675 17.625C174.35 17.325 173.625 16.8 173.2 16.55C174.625 15.325 176.025 13.575 176.875 11.85ZM186.8 12.475L188.575 13C186.825 19.4 182.75 22.675 174.725 24.15C174.55 23.625 174.15 22.925 173.75 22.475C181.375 21.3 185.175 18.35 186.8 12.475ZM180.875 10.5H182.7V16.725C182.7 17.65 182.525 18.15 181.8 18.425C181.125 18.7 180.1 18.7 178.55 18.7C178.475 18.2 178.225 17.525 177.975 17.025C179.15 17.05 180.15 17.05 180.5 17.025C180.825 17.025 180.875 16.95 180.875 16.7V10.5ZM168 2.575L169.05 1.225C170.625 1.9 172.6 3.025 173.55 3.9L172.475 5.425C171.525 4.525 169.6 3.325 168 2.575ZM166.675 9.375L167.7 7.975C169.3 8.575 171.325 9.65 172.325 10.475L171.25 12.025C170.275 11.175 168.3 10.05 166.675 9.375ZM167.225 22.525C168.475 20.6 170.225 17.325 171.55 14.475L173 15.625C171.8 18.25 170.2 21.375 168.85 23.675L167.225 22.525ZM195.775 2.475H203.05V18.8H195.775V17.15H201.575V4.125H195.775V2.475ZM194.775 2.475H196.25V21.05H194.775V2.475ZM195.625 9.575H202.35V11.175H195.625V9.575ZM206.025 21.375H214.65V23.025H206.025V21.375ZM207.175 3.675H214.325V5.275H207.175V3.675ZM198.225 3.325H199.5V17.95H198.225V3.325ZM204.9 14.85H215.475V23.85H213.625V16.525H206.675V23.9H204.9V14.85ZM213.9 3.675H214.2L214.55 3.575L215.775 4.2C213.55 9.85 208.55 13.925 203.725 15.95C203.475 15.5 203 14.825 202.625 14.475C207.15 12.775 212 8.8 213.9 4.025V3.675ZM208.1 0.924999L209.9 1.4C208.55 4.625 206.325 7.6 204.025 9.5C203.725 9.175 203.025 8.525 202.6 8.225C204.9 6.5 206.95 3.8 208.1 0.924999ZM207.15 4.975C208.775 8.3 212.475 12.275 217.475 14.1C217.1 14.45 216.55 15.175 216.275 15.65C211.275 13.6 207.575 9.375 205.85 5.9L207.15 4.975ZM230.45 3.75H243.975V5.475H230.45V3.75ZM233.85 9.125H240.35V10.7H233.85V9.125ZM231.025 12.8H243.325V14.375H231.025V12.8ZM233.45 16.275H241.05V17.85H233.45V16.275ZM239.2 4.2C240.2 6.7 242.2 9.175 244.325 10.375C243.925 10.725 243.35 11.375 243.05 11.825C240.8 10.375 238.75 7.575 237.625 4.7L239.2 4.2ZM240.4 16.275H242.25C242.25 16.275 242.2 16.8 242.15 17.075C241.7 21 241.225 22.675 240.475 23.375C240 23.8 239.525 23.95 238.75 24C238.1 24.025 236.9 24.025 235.625 23.95C235.6 23.45 235.375 22.75 235.075 22.3C236.35 22.4 237.6 22.425 238.1 22.425C238.525 22.425 238.8 22.4 239.025 22.2C239.575 21.725 240 20.2 240.4 16.525V16.275ZM233.85 13.6H235.675C235.15 15.4 234.5 17.6 233.95 19.05L232.225 18.725C232.775 17.325 233.425 15.25 233.85 13.6ZM223.75 3.7V8.2H228.1V3.7H223.75ZM222.125 2.1H229.775V9.8H222.125V2.1ZM225.375 8.95H227V20.5H225.375V8.95ZM222.15 12.1H223.675V21.25H222.15V12.1ZM220.925 21C223.375 20.475 227.15 19.55 230.775 18.65L230.975 20.275C227.575 21.175 223.95 22.075 221.3 22.75L220.925 21ZM226.075 13.225H230.35V14.875H226.075V13.225ZM235.8 0.974999L237.65 1.175C236.925 5.15 234.925 9.35 230.675 12.1C230.425 11.65 229.85 11 229.45 10.725C233.425 8.3 235.25 4.4 235.8 0.974999ZM259.625 14.625H269.175V16.4H259.625V14.625ZM254.025 15.7C255.825 20.875 259.85 21.875 265.075 21.875C265.875 21.875 270.125 21.875 271.2 21.85C270.925 22.3 270.625 23.15 270.525 23.675H264.975C258.9 23.675 254.725 22.4 252.475 16.325L254.025 15.7ZM258.775 10.225H260.7V22.65L258.775 22.025V10.225ZM253.175 4.025V8.95H266.5V4.025H253.175ZM251.325 2.25H268.45V10.75H251.325V2.25ZM252.775 12.625L254.75 12.85C254.15 16.95 252.75 21.55 249.55 24.025C249.225 23.65 248.6 23.025 248.2 22.75C251.175 20.475 252.4 16.225 252.775 12.625ZM280.875 0.999999H282.475V5.125H280.875V0.999999ZM281.525 2.1H286.75V3.35H281.525V2.1ZM279.525 4.575H285.25V5.825H278.5L279.525 4.575ZM284.8 4.575H285.125L285.425 4.525L286.425 5.075C284.55 8.825 280.25 11.05 276.1 12.125C275.9 11.725 275.525 11.175 275.225 10.85C279.075 10 283.25 7.925 284.8 4.85V4.575ZM277.45 7.025L278.425 6.175C279.7 6.725 281.3 7.6 282.125 8.3L281.125 9.225C280.35 8.575 278.75 7.625 277.45 7.025ZM278.975 4.2L280.4 4.625C279.35 6.025 277.625 7.375 276.05 8.225C275.8 7.975 275.225 7.475 274.875 7.25C276.475 6.5 278.075 5.4 278.975 4.2ZM287.775 2.1H295.55V3.475H287.775V2.1ZM295.1 2.1H295.45L295.725 2.025L296.8 2.5C295.375 6.3 292.025 8.775 288.6 9.975C288.4 9.575 287.975 8.95 287.65 8.625C290.8 7.675 293.925 5.4 295.1 2.35V2.1ZM287.7 5.45L288.775 4.4C291.875 5.8 295.7 8.075 297.625 9.75L296.475 10.975C294.625 9.275 290.825 6.925 287.7 5.45ZM286.625 9.9C284.375 11.9 280.2 13.975 276.05 15.2C275.875 14.8 275.525 14.225 275.225 13.875C279.45 12.75 283.625 10.725 285.775 8.65H287.3C290.15 10.975 294.525 12.775 298.35 13.575C298 13.975 297.625 14.6 297.425 15C293.75 14.075 289.25 12.075 286.625 9.9ZM281 13.875H293.675V19.625H281V18.475H291.9V15.025H281V13.875ZM280.025 13.875H281.8V22.6L280.025 22.75V13.875ZM294.625 18.5L296 19.375C294.425 20.375 292.425 21.425 290.85 22.075L289.825 21.325C291.375 20.625 293.45 19.4 294.625 18.5ZM286.95 18.925C288.8 21.175 293.025 22.3 297.925 22.625C297.575 22.95 297.175 23.575 296.975 24.025C291.9 23.55 287.65 22.125 285.55 19.35L286.95 18.925ZM281 16.175H292.5V17.225H281V16.175ZM283.45 11.85H289.975V13H283.45V11.85ZM277.2 22.225C279.85 22 283.95 21.625 287.925 21.2V22.625C284.175 23.025 280.2 23.45 277.425 23.725L277.2 22.225ZM315.225 5.55H323.8V7.25H315.225V5.55ZM315.775 0.999999L317.625 1.275C316.85 5.575 315.55 9.525 313.7 12.1C313.375 11.825 312.525 11.275 312.075 11.05C313.975 8.675 315.15 4.925 315.775 0.999999ZM318.925 6.225H319.825V10.55C319.825 12.525 320.6 19.2 325.55 22.425C325.225 22.825 324.65 23.6 324.375 24.05C320.475 21.45 319.15 16.5 318.9 14.45C318.625 16.475 317.175 21.35 312.975 24.05C312.725 23.625 312.2 22.875 311.85 22.525C317.2 19.2 317.975 12.625 317.975 10.55V6.225H318.925ZM323.325 5.55H323.625L323.925 5.45L325.175 5.8C324.7 8.075 323.95 10.65 323.2 12.275L321.7 11.75C322.35 10.275 322.95 7.825 323.325 5.9V5.55ZM307.425 5.25H309.1V8.225H307.425V5.25ZM304.175 7.55H305.875V21.625H304.175V7.55ZM305.175 10.9H311.4V12.25H305.175V10.9ZM302.35 21.25C304.5 20.7 307.75 19.75 310.875 18.8L311.1 20.35C308.275 21.3 305.325 22.275 303 23.025L302.35 21.25ZM308.7 16.85L310.225 16.275C311.175 17.875 312.2 19.975 312.6 21.275L310.975 21.975C310.6 20.65 309.625 18.45 308.7 16.85ZM305.175 7.55H312.25V15.7H305.175V14.3H310.55V8.95H305.175V7.55ZM307.025 1.025H308.025V1.425H308.6V1.925C307.5 3.85 305.7 6.45 302.925 8.575C302.675 8.175 302.175 7.575 301.8 7.325C304.325 5.475 306.075 3 307.025 1.025ZM307.525 1.025H308.875C310.4 2.35 312.275 4.25 313.225 5.5L311.9 6.75C311.025 5.55 309.3 3.525 307.875 2.275H307.525V1.025ZM331.775 5.025H339.375V21.375H331.775V19.675H337.625V6.7H331.775V5.025ZM330.65 5.025H332.4V23.375H330.65V5.025ZM331.65 11.975H338.55V13.65H331.65V11.975ZM334.475 0.949998L336.5 1.325C336 2.875 335.375 4.6 334.875 5.725L333.375 5.35C333.8 4.15 334.275 2.25 334.475 0.949998ZM342.925 4.95H350.6V6.7H342.925V4.95ZM349.95 4.95H351.7C351.7 4.95 351.7 5.65 351.7 5.925C351.3 17.4 350.95 21.275 349.95 22.5C349.4 23.225 348.825 23.45 347.95 23.525C347.1 23.625 345.625 23.575 344.225 23.5C344.175 22.95 343.95 22.175 343.6 21.675C345.225 21.8 346.725 21.825 347.3 21.825C347.8 21.825 348.1 21.75 348.375 21.425C349.2 20.525 349.6 16.375 349.95 5.35V4.95ZM343.45 0.899999L345.25 1.325C344.325 5.05 342.85 8.725 341.125 11.1C340.8 10.8 340.025 10.275 339.575 10.025C341.275 7.825 342.65 4.375 343.45 0.899999ZM342.3 11.45L343.75 10.6C345.175 12.375 346.9 14.8 347.7 16.275L346.1 17.275C345.35 15.75 343.675 13.275 342.3 11.45ZM357.1 11.45H365.475V13.125H357.1V11.45ZM359.025 7.425H365.25V9.05H359.025V7.425ZM359.775 12.325H361.475V23.975H359.775V12.325ZM364.625 11.45H366.3V18.875C366.3 19.7 366.175 20.2 365.575 20.5C364.975 20.775 364.075 20.8 362.725 20.8C362.7 20.3 362.5 19.625 362.275 19.175C363.275 19.2 364.05 19.2 364.325 19.175C364.575 19.15 364.625 19.075 364.625 18.85V11.45ZM366.775 2.175H379.4V3.8H366.775V2.175ZM369.475 11.475V13.925H376.8V11.475H369.475ZM369.475 15.3V17.775H376.8V15.3H369.475ZM369.475 7.65V10.075H376.8V7.65H369.475ZM367.725 6.2H378.625V19.25H367.725V6.2ZM372.15 2.975L374.275 3.225C373.85 4.675 373.4 6.25 373 7.3L371.35 6.975C371.65 5.85 372 4.125 372.15 2.975ZM370.225 19.7L371.875 20.675C370.5 22 368.15 23.35 366.15 24.1C365.875 23.725 365.275 23.15 364.9 22.825C366.9 22.1 369.15 20.8 370.225 19.7ZM374.1 20.775L375.525 19.825C377.05 20.7 378.975 22.05 380 23L378.5 24.075C377.575 23.15 375.65 21.725 374.1 20.775ZM361.05 1.025H362.075V1.425H362.65V1.925C361.625 4.05 359.925 6.975 357.225 9.425C356.975 9.025 356.475 8.35 356.125 8.075C358.525 6 360.175 3.2 361.05 1.025ZM361.275 1.025H362.7C364.375 2.45 366.45 4.575 367.425 5.975L366.2 7.55C365.25 6.15 363.3 3.8 361.65 2.425H361.275V1.025ZM383.8 7.125H390.5V8.9H383.8V7.125ZM386.45 1.3H388.2V18.05H386.45V1.3ZM383.625 18.775C385.375 18.05 388 16.825 390.55 15.575L391.05 17.25C388.75 18.425 386.325 19.675 384.35 20.65L383.625 18.775ZM390.9 4.725H406.45V6.425H390.9V4.725ZM390.075 19.45C392.3 18.95 395.7 18.05 398.95 17.175L399.15 18.775C396.125 19.65 392.975 20.55 390.575 21.225L390.075 19.45ZM399.275 1.025H401.1C401 12.85 402.45 22.2 404.6 22.2C405.075 22.2 405.325 21.2 405.4 18.6C405.775 19.025 406.35 19.4 406.75 19.6C406.475 22.925 405.95 24 404.375 24C400.425 24 399.375 13.25 399.275 1.025ZM402.075 2L403.175 1.075C404.25 1.8 405.6 2.9 406.225 3.65L405.1 4.725C404.45 3.95 403.175 2.8 402.075 2ZM404.275 8.8L406 9.125C404.25 15.65 401.225 20.625 396.725 23.8C396.45 23.475 395.75 22.85 395.35 22.55C399.85 19.7 402.75 14.9 404.275 8.8ZM393.125 10.325V14.525H396.375V10.325H393.125ZM391.65 8.8H397.9V16.075H391.65V8.8ZM425.275 4.8H433.375V6.575H425.275V4.8ZM425.25 16.15H433.8V17.925H425.25V16.15ZM425.15 10.45H432.875V12.15H425.15V10.45ZM411.775 4.8H419.15V6.575H411.775V4.8ZM412.075 10.45H419.075V12.15H412.075V10.45ZM424.3 1.15H426.15V24H424.3V1.15ZM410.85 16.7C413.625 16.275 417.975 15.575 422.1 14.85L422.2 16.525C418.3 17.25 414.2 18 411.25 18.525L410.85 16.7ZM418.3 1.15H420.15V12.825C420.15 16.05 419.15 21.45 413.125 24.275C412.825 23.85 412.225 23.25 411.775 22.875C417.5 20.45 418.3 15.425 418.3 12.825V1.15ZM448.85 13.175H450.75V24.025H448.85V13.175ZM444.825 9.75V12.175H454.275V9.75H444.825ZM443 8.325H456.2V13.625H443V8.325ZM440.775 15.7H457.525V17.4H442.65V22.875H440.775V15.7ZM456.6 15.7H458.5V20.925C458.5 21.9 458.3 22.425 457.525 22.7C456.725 23 455.45 23 453.5 23C453.4 22.5 453.125 21.8 452.85 21.3C454.35 21.35 455.7 21.35 456.1 21.325C456.475 21.3 456.6 21.2 456.6 20.925V15.7ZM448.675 0.999999H450.6V5.55H448.675V0.999999ZM439.125 4.875H460.025V10.275H458.15V6.55H440.95V10.275H439.125V4.875ZM441.2 1.925L442.875 1.25C443.7 2.15 444.575 3.35 445 4.175L443.2 5C442.825 4.15 441.975 2.85 441.2 1.925ZM456.05 1.2L458 1.875C457.175 2.975 456.225 4.125 455.475 4.9L453.95 4.275C454.65 3.45 455.575 2.1 456.05 1.2ZM469.375 11.575H487.625V12.925H469.375V11.575ZM469.375 6.425H487.275V7.7H469.375V6.425ZM477.425 12.075H479.2V19.85H477.425V12.075ZM473.75 4.55H475.55V9.4H481.3V4.55H483.125V10.575H473.75V4.55ZM472.675 17.825V19.4H484.3V17.825H472.675ZM472.675 15.25V16.75H484.3V15.25H472.675ZM470.95 14.15H486.125V20.475H470.95V14.15ZM479.95 21.9L481.225 20.85C483.625 21.475 486.3 22.325 487.875 22.975L486.175 24.075C484.75 23.425 482.35 22.6 479.95 21.9ZM475.325 20.775L476.85 21.8C475.1 22.725 472.325 23.625 470.15 24.05C469.9 23.7 469.35 23.15 469 22.825C471.2 22.4 473.975 21.55 475.325 20.775ZM468.35 3.15H487.7V4.775H468.35V3.15ZM467.3 3.15H469.125V10.3C469.125 14.275 468.775 19.95 466.475 23.8C466.15 23.5 465.35 23 464.9 22.825C467.125 19.175 467.3 14.025 467.3 10.3V3.15ZM476.275 1.025H478.15V4.25H476.275V1.025ZM495.175 24.675L494.6 23.375C496.65 22.525 497.775 21.25 497.775 19.375L497.3 17.25L498.65 19.15C498.3 19.6 497.8 19.725 497.325 19.725C496.3 19.725 495.45 19.125 495.45 17.925C495.45 16.75 496.35 16.125 497.35 16.125C498.75 16.125 499.5 17.275 499.5 19.025C499.5 21.725 497.8 23.775 495.175 24.675ZM534.575 15.05H541.1V16.675H534.575V15.05ZM533.775 10.825H535.55V22.775L533.775 22.1V10.825ZM530.15 16.05C531.375 21 534.075 22.05 537.775 22.05C538.325 22.05 541.625 22.05 542.4 22.05C542.15 22.45 541.875 23.275 541.825 23.775H537.625C533.15 23.775 530.275 22.45 528.75 16.575L530.15 16.05ZM530.6 1.025L532.4 1.3C531.55 5.55 529.875 9.1 527.425 11.375C527.175 11.05 526.45 10.375 526.025 10.1C528.4 8.075 529.875 4.825 530.6 1.025ZM537.325 1.025L539.15 1.25C538.475 5.6 536.9 8.9 534.35 11.025C534.05 10.7 533.275 10.125 532.85 9.85C535.375 8 536.775 4.95 537.325 1.025ZM529.975 6.1L530.875 4.825C532 5.675 533.425 6.875 534.125 7.625L533.2 9.075C532.525 8.275 531.1 7 529.975 6.1ZM536.525 6.125L537.775 5.025C539.45 6.425 541.55 8.475 542.525 9.75L541.225 11.025C540.25 9.7 538.225 7.6 536.525 6.125ZM528.875 12.65L530.725 12.775C530.375 17.875 529.3 21.5 526.625 23.95C526.35 23.65 525.6 23.025 525.2 22.75C527.75 20.65 528.65 17.2 528.875 12.65ZM525.05 6.1L526.75 6.725C525.025 9.725 522.4 12.75 519.95 14.75C519.775 14.35 519.225 13.475 518.875 13.075C521.2 11.375 523.575 8.75 525.05 6.1ZM524.475 1.025L526.15 1.675C524.7 3.775 522.35 6.125 520.225 7.625C519.975 7.25 519.5 6.6 519.175 6.25C521.125 4.925 523.375 2.8 524.475 1.025ZM522.8 10.75L524.325 9.225L524.575 9.35V24.1H522.8V10.75ZM553.85 6.075H560.375V7.75H553.85V6.075ZM563.05 19.3H567.825V21H563.05V19.3ZM562.425 3.925H568.7V22.9H567.075V5.625H563.975V23.1H562.425V3.925ZM559.8 6.075H561.425C561.425 6.075 561.425 6.7 561.425 6.95C561.1 18.025 560.85 21.55 560.075 22.6C559.675 23.225 559.25 23.425 558.625 23.525C558.075 23.575 557.25 23.6 556.4 23.525C556.4 23.025 556.225 22.3 555.975 21.825C556.8 21.9 557.525 21.9 557.9 21.9C558.225 21.9 558.4 21.85 558.625 21.525C559.2 20.725 559.5 17.1 559.8 6.475V6.075ZM556.025 1.1H557.65C557.6 11.3 557.6 19.5 553.15 24.1C552.875 23.7 552.275 23.15 551.85 22.9C556.05 18.675 556 10.85 556.025 1.1ZM548.3 2.85H552.95V17.725H548.3V16.15H551.45V4.4H548.3V2.85ZM547.375 2.85H548.9V20.175H547.375V2.85ZM589.875 1.175H591.7V24H589.875V1.175ZM581.625 5.275H586.875V7H581.625V5.275ZM590.85 5.275H596.375V7H590.85V5.275ZM590.925 10.475H596.075V12.175H590.925V10.475ZM590.85 15.75H596.625V17.475H590.85V15.75ZM581.825 10.475H586.65V12.175H581.825V10.475ZM580.625 16.95C582.625 16.4 585.675 15.375 588.6 14.4L588.85 15.825C586.225 16.85 583.525 17.875 581.375 18.65L580.625 16.95ZM585.85 1.225H587.625V12.375C587.625 17.025 586.95 21.35 582.4 24.125C582.1 23.775 581.45 23.175 581 22.9C585.3 20.35 585.85 16.35 585.85 12.375V1.225ZM575.4 3.35H580.975V16.65H575.4V14.925H579.25V5.075H575.4V3.35ZM574.45 3.35H576.125V18.9H574.45V3.35ZM606.575 23.4C604.95 21.425 602.8 19.3 601.025 17.85L602.65 16.425C604.45 17.875 606.7 20.125 608.275 21.95L606.575 23.4ZM646.8 1.05L648.2 2.575C643.675 3.9 636.275 4.575 630.2 4.825C630.15 4.35 629.925 3.6 629.75 3.175C635.7 2.9 643 2.225 646.8 1.05ZM629.775 8.1H649.275V9.9H629.775V8.1ZM628.1 13.975H650.675V15.8H628.1V13.975ZM638.425 3.7H640.375V21.4C640.375 22.725 639.975 23.3 639.025 23.6C638.075 23.9 636.45 23.95 633.8 23.925C633.675 23.4 633.325 22.55 633.025 22.05C635.1 22.125 637.1 22.1 637.65 22.075C638.225 22.075 638.425 21.9 638.425 21.375V3.7ZM670 1.025L671.8 1.4C670.075 3.825 667.35 6.125 663.4 7.825C663.175 7.45 662.7 6.85 662.35 6.55C666.05 5.1 668.675 2.95 670 1.025ZM668.95 2.975H675.925V4.425H667.95L668.95 2.975ZM675.325 2.975H675.675L675.975 2.9L677.05 3.425C674.75 8.575 669.225 11.45 663.7 12.675C663.55 12.25 663.175 11.525 662.875 11.125C668.075 10.15 673.375 7.475 675.325 3.25V2.975ZM666.6 10.725L668.3 11.2C667.525 13 666.3 14.95 665.175 16.175C664.8 15.9 664.075 15.45 663.625 15.275C664.825 14.1 665.925 12.375 666.6 10.725ZM667.175 12.125H676.85V13.7H666.35L667.175 12.125ZM662.475 16.275H678.025V17.875H662.475V16.275ZM669.675 12.875H671.475V22.125H669.675V12.875ZM664.225 18.675H665.925V24H664.225V18.675ZM675.2 18.675H676.925V23.95H675.2V18.675ZM665.05 21.375H675.875V22.95H665.05V21.375ZM667.175 5.325L668.175 4.45C669.775 5.2 671.75 6.375 672.75 7.25L671.725 8.225C670.75 7.35 668.8 6.125 667.175 5.325ZM664.45 6.825L665.525 6.025C667.05 6.9 668.875 8.2 669.8 9.1L668.675 10C667.775 9.075 665.95 7.725 664.45 6.825ZM654.675 13.975C656.625 13.425 659.55 12.525 662.4 11.6L662.65 13.325C660.05 14.225 657.3 15.125 655.175 15.8L654.675 13.975ZM655.025 6.05H662.55V7.8H655.025V6.05ZM658.175 1.025H659.925V21.825C659.925 22.875 659.675 23.375 659.05 23.675C658.475 23.975 657.5 24.025 655.925 24.025C655.85 23.575 655.625 22.8 655.375 22.275C656.475 22.3 657.425 22.3 657.725 22.275C658.025 22.275 658.175 22.2 658.175 21.825V1.025ZM694.975 5.55H703.55V7.25H694.975V5.55ZM695.525 0.999999L697.375 1.275C696.6 5.575 695.3 9.525 693.45 12.1C693.125 11.825 692.275 11.275 691.825 11.05C693.725 8.675 694.9 4.925 695.525 0.999999ZM698.675 6.225H699.575V10.55C699.575 12.525 700.35 19.2 705.3 22.425C704.975 22.825 704.4 23.6 704.125 24.05C700.225 21.45 698.9 16.5 698.65 14.45C698.375 16.475 696.925 21.35 692.725 24.05C692.475 23.625 691.95 22.875 691.6 22.525C696.95 19.2 697.725 12.625 697.725 10.55V6.225H698.675ZM703.075 5.55H703.375L703.675 5.45L704.925 5.8C704.45 8.075 703.7 10.65 702.95 12.275L701.45 11.75C702.1 10.275 702.7 7.825 703.075 5.9V5.55ZM687.175 5.25H688.85V8.225H687.175V5.25ZM683.925 7.55H685.625V21.625H683.925V7.55ZM684.925 10.9H691.15V12.25H684.925V10.9ZM682.1 21.25C684.25 20.7 687.5 19.75 690.625 18.8L690.85 20.35C688.025 21.3 685.075 22.275 682.75 23.025L682.1 21.25ZM688.45 16.85L689.975 16.275C690.925 17.875 691.95 19.975 692.35 21.275L690.725 21.975C690.35 20.65 689.375 18.45 688.45 16.85ZM684.925 7.55H692V15.7H684.925V14.3H690.3V8.95H684.925V7.55ZM686.775 1.025H687.775V1.425H688.35V1.925C687.25 3.85 685.45 6.45 682.675 8.575C682.425 8.175 681.925 7.575 681.55 7.325C684.075 5.475 685.825 3 686.775 1.025ZM687.275 1.025H688.625C690.15 2.35 692.025 4.25 692.975 5.5L691.65 6.75C690.775 5.55 689.05 3.525 687.625 2.275H687.275V1.025ZM713.45 1.1H715.2V23.975H713.45V1.1ZM709.425 9.4H719.3V11.175H709.425V9.4ZM713.175 10.325L714.3 10.825C713.425 14.225 711.65 18.55 709.975 20.825C709.775 20.275 709.325 19.475 709.025 18.975C710.625 17.05 712.375 13.25 713.175 10.325ZM715.15 11.5C715.85 12.25 718.4 15.65 718.975 16.475L717.725 17.975C717.1 16.625 715.05 13.35 714.225 12.275L715.15 11.5ZM709.6 2.95L710.975 2.6C711.675 4.35 712.25 6.625 712.425 8.125L710.95 8.525C710.825 7.025 710.25 4.7 709.6 2.95ZM717.675 2.5L719.325 2.925C718.675 4.825 717.9 7.175 717.225 8.575L716.025 8.2C716.575 6.7 717.325 4.2 717.675 2.5ZM727.375 1.025H729.15V24H727.375V1.025ZM719.25 16.925L732.1 14.625L732.4 16.35L719.55 18.675L719.25 16.925ZM721.125 4.075L722.1 2.8C723.55 3.65 725.275 4.925 726.1 5.85L725.1 7.3C724.3 6.325 722.575 4.975 721.125 4.075ZM719.85 10.375L720.725 9.05C722.225 9.825 724.075 11 724.975 11.9L724.025 13.375C723.15 12.475 721.35 11.2 719.85 10.375ZM742.2 23.4C740.575 21.425 738.425 19.3 736.65 17.85L738.275 16.425C740.075 17.875 742.325 20.125 743.9 21.95L742.2 23.4ZM779.35 10.075H785.55V11.45H779.35V10.075ZM778.625 13.375H786.225V14.75H778.625V13.375ZM778.025 1.025H779.85V7.1H778.025V1.025ZM781.525 8.275H783.125V14.1H781.525V8.275ZM773.45 3.175H784.875V4.625H773.45V3.175ZM772.15 10.075H778V11.45H772.15V10.075ZM772.125 6.4H786.225V7.875H772.125V6.4ZM771.55 16.025H786.475V17.6H771.55V16.025ZM774.325 8.275H775.925V13.775L774.325 14.1V8.275ZM771.475 13.8C773.2 13.6 775.65 13.325 778.175 13L778.2 14.325C775.925 14.675 773.6 14.975 771.775 15.225L771.475 13.8ZM779.875 16.825H781.625V21.6C781.625 22.175 781.725 22.25 782.35 22.25C782.625 22.25 784.025 22.25 784.4 22.25C784.975 22.25 785.075 21.925 785.15 19.7C785.5 19.95 786.2 20.2 786.675 20.325C786.525 23.1 786.05 23.775 784.6 23.775C784.225 23.775 782.45 23.775 782.125 23.775C780.3 23.775 779.875 23.3 779.875 21.625V16.825ZM767.025 1.3H768.675V9.825C768.675 14.875 768.275 20.025 764.65 24.025C764.375 23.65 763.775 23.075 763.375 22.775C766.65 19.1 767.025 14.375 767.025 9.8V1.3ZM764.825 6.175L766.15 6.35C766.1 8.8 765.7 11.425 764.575 13L763.375 12.225C764.35 10.875 764.75 8.45 764.825 6.175ZM770.55 5.2L772.1 5.8C771.425 7.55 770.625 9.675 769.95 11.05L768.85 10.525C769.425 9.125 770.2 6.775 770.55 5.2ZM768.175 15.1C768.85 15.775 771.225 18.7 771.8 19.425L770.525 20.75C769.825 19.55 767.825 16.95 767.025 15.975L768.175 15.1ZM775.55 16.875H777.3C776.95 20.7 775.825 22.85 771.4 24.025C771.25 23.6 770.775 22.9 770.4 22.575C774.375 21.65 775.3 20 775.55 16.875ZM799.975 3.8H809.625V5.475H799.975V3.8ZM799 8.525H813.65V10.2H799V8.525ZM803.125 16.35H810.85V17.95H803.125V16.35ZM803.975 12.525H811.6V14.075H803.975V12.525ZM803.975 1.075H805.75V9.825H803.975V1.075ZM803.025 12.1H804.75C804.35 14.35 803.775 17.25 803.35 19.025L801.65 18.775C802.125 17 802.675 14.225 803.025 12.1ZM810.25 16.35H812.1C812.1 16.35 812.05 16.9 812 17.175C811.575 21.05 811.1 22.7 810.4 23.4C809.925 23.85 809.475 23.975 808.75 24.025C808.125 24.075 806.925 24.05 805.7 24C805.65 23.475 805.45 22.75 805.125 22.275C806.375 22.375 807.55 22.4 808.025 22.4C808.475 22.4 808.7 22.375 808.925 22.175C809.475 21.7 809.875 20.225 810.25 16.6V16.35ZM811.525 1.525L813.15 2.1C809.975 8.375 804.975 13.3 799.175 16.45C798.95 16.075 798.375 15.3 798 14.95C803.75 12.15 808.625 7.4 811.525 1.525ZM794.45 1.35H796.125V9.775C796.125 14.85 795.675 20.025 791.6 23.975C791.35 23.6 790.775 22.975 790.375 22.7C794.05 19.075 794.45 14.325 794.45 9.75V1.35ZM792 6.1L793.35 6.3C793.3 8.625 792.85 11.25 791.775 12.8L790.475 12.15C791.45 10.8 791.925 8.35 792 6.1ZM798.1 5.325L799.675 5.975C798.975 7.7 798.125 9.775 797.425 11.1L796.275 10.55C796.9 9.15 797.7 6.9 798.1 5.325ZM795.7 15.025C796.375 15.725 798.85 18.875 799.4 19.6L798.1 20.925C797.375 19.675 795.35 16.9 794.5 15.875L795.7 15.025ZM830.775 9.575H840.2V11.25H830.775V9.575ZM824.9 21.375H837.5V23.05H824.9V21.375ZM829.875 6.6H831.775V15.75H829.875V6.6ZM823.9 14.85H838.525V24H836.6V16.55H825.725V24.05H823.9V14.85ZM829 1.025H830.925V5.275H829V1.025ZM820.675 4.25H840.55V6.05H820.675V4.25ZM819.75 4.25H821.625V10.725C821.625 14.575 821.275 20.225 819.125 24.025C818.8 23.7 817.975 23.175 817.525 22.975C819.575 19.375 819.75 14.325 819.75 10.725V4.25ZM845.775 2.575H867.175V4.325H845.775V2.575ZM847.425 14.775H865.475V16.525H847.425V14.775ZM845.225 21.225H867.575V22.975H845.225V21.225ZM855.3 11.675H857.25V22.45H855.3V11.675ZM846.225 9.325C850.55 9.25 857.575 9.025 864.3 8.775L864.2 10.475C857.675 10.775 850.725 11.075 846.3 11.225L846.225 9.325ZM853.05 3.375L855.2 4.05C854.075 6.25 852.625 8.825 851.475 10.45L849.75 9.825C850.875 8.1 852.3 5.35 853.05 3.375ZM858.65 6.1L860.175 5.075C862.65 6.8 865.775 9.375 867.25 11.175L865.575 12.375C864.175 10.6 861.175 7.95 858.65 6.1ZM885.45 19.525H892.85V21.3H885.45V19.525ZM884.675 3.175H893.675V23.025H891.8V4.95H886.475V23.3H884.675V3.175ZM877.275 5.225H879.175V10.25C879.175 14.5 878.325 20.25 873.15 23.95C872.9 23.55 872.225 22.825 871.825 22.55C876.7 19.075 877.275 14.1 877.275 10.225V5.225ZM874.7 4.375H883.125V6.125H874.7V4.375ZM872.1 11.1H883.875V12.9H872.1V11.1ZM878.575 14.4C879.55 15.275 882.975 19.125 883.775 20.075L882.5 21.65C881.45 20.125 878.575 16.7 877.425 15.475L878.575 14.4ZM874.925 0.999999L876.75 1.35C876.025 4.7 874.825 7.925 873.35 10.05C873.025 9.75 872.225 9.225 871.8 8.975C873.3 7.05 874.325 4.05 874.925 0.999999ZM907.225 21.275H919.3V23H907.225V21.275ZM906.375 3.525H915.55V5.2H906.375V3.525ZM907.5 0.924999L909.6 1.35C907.725 4.6 904.725 8 900.375 10.575C900.1 10.1 899.475 9.45 899.05 9.125C903.175 6.875 906.05 3.65 907.5 0.924999ZM914.925 3.525H915.275L915.625 3.425L916.875 4.1C913.875 11.65 906.825 16.675 900.025 18.875C899.8 18.375 899.325 17.6 898.925 17.2C905.4 15.325 912.325 10.425 914.925 3.85V3.525ZM903.25 7.975L904.65 6.775C906.625 8.125 909.025 10.125 910.175 11.55L908.65 12.9C907.6 11.475 905.225 9.375 903.25 7.975ZM918.375 13.375H920.3V24.05H918.375V13.375ZM908.075 13.375H919.325V15.1H908.075V24H906.2V14.85L907.7 13.375H908.075ZM941.125 9.975H942.75V13.175H941.125V9.975ZM944.1 4.625L945.625 5.125C945.05 6.35 944.425 7.8 943.925 8.725L942.775 8.3C943.225 7.3 943.825 5.7 944.1 4.625ZM938.525 5.225L939.725 4.8C940.3 5.875 940.775 7.325 940.925 8.225L939.625 8.7C939.5 7.775 939.025 6.3 938.525 5.225ZM935.575 2.2H947.55V3.875H937.275V24.05H935.575V2.2ZM946.85 2.2H948.575V21.9C948.575 22.925 948.375 23.425 947.7 23.725C947.05 23.975 945.975 24.025 944.35 24.025C944.3 23.575 944.05 22.825 943.825 22.35C944.95 22.4 946.075 22.375 946.4 22.375C946.75 22.35 946.85 22.25 946.85 21.9V2.2ZM938.225 8.65H945.875V10.125H938.225V8.65ZM938.025 12.75H946.025V14.225H938.025V12.75ZM939.075 13.575H940.7V17.775C940.7 18.425 940.775 18.625 941.25 18.625C941.7 18.625 943.725 18.625 944.15 18.625C944.525 18.625 945.2 18.6 945.525 18.525C945.575 18.95 945.625 19.65 945.675 20.025C945.35 20.15 944.775 20.15 944.175 20.15C943.725 20.15 941.575 20.15 941.25 20.15C939.475 20.15 939.075 19.55 939.075 17.75V13.575ZM930.15 1.025L931.8 1.65C930.85 3.5 929.675 5.75 928.7 7.125L927.425 6.575C928.325 5.125 929.5 2.675 930.15 1.025ZM932.95 3.875L934.525 4.6C932.8 7.375 930.375 10.925 928.5 13.1L927.35 12.45C929.225 10.225 931.575 6.5 932.95 3.875ZM926.15 6.225L927.15 5.025C928.5 6.25 930.025 7.925 930.675 9.075L929.6 10.475C928.975 9.275 927.475 7.5 926.15 6.225ZM931.975 9.6L933.325 9.025C934.375 10.675 935.4 12.825 935.75 14.2L934.275 14.875C933.95 13.475 932.975 11.25 931.975 9.6ZM925.95 12.075C928.125 11.975 931.25 11.825 934.4 11.65V13.225C931.425 13.425 928.425 13.6 926.15 13.75L925.95 12.075ZM932.625 15.65L934 15.225C934.65 16.675 935.175 18.55 935.35 19.775L933.9 20.225C933.75 19 933.225 17.1 932.625 15.65ZM927.45 15.3L929.025 15.575C928.7 17.95 928.125 20.35 927.325 21.95C927.025 21.75 926.275 21.425 925.9 21.25C926.7 19.725 927.175 17.475 927.45 15.3ZM930.1 12.8H931.75V24H930.1V12.8ZM963.85 3.675H975.975V5.475H963.85V3.675ZM962.825 21.3H976.375V23.1H962.825V21.3ZM968.85 4.25H970.775V22.25H968.85V4.25ZM958.175 12.675H960V24H958.175V12.675ZM957.925 0.974999L959.7 1.7C958.6 3.5 957.2 5.65 956.075 7L954.725 6.375C955.8 4.95 957.175 2.625 957.925 0.974999ZM961.15 3.75L962.875 4.575C960.975 7.375 958.325 10.875 956.225 13L954.975 12.25C957.025 10.05 959.65 6.4 961.15 3.75ZM953.375 6L954.325 4.775C955.9 6 957.775 7.7 958.6 8.9L957.6 10.35C956.75 9.1 954.95 7.275 953.375 6ZM960.725 9.5L962.1 8.8C963.375 10.375 964.75 12.5 965.3 13.9L963.85 14.725C963.3 13.325 961.975 11.125 960.725 9.5ZM953.275 11.975C955.8 11.875 959.6 11.7 963.325 11.5V13.1C959.775 13.35 956.125 13.6 953.5 13.75L953.275 11.975ZM961.275 15.625L962.8 15.125C963.65 16.725 964.45 18.8 964.775 20.15L963.15 20.775C962.85 19.375 962.05 17.25 961.275 15.625ZM955.05 15.275L956.8 15.6C956.4 17.975 955.675 20.425 954.8 22.025C954.45 21.775 953.65 21.4 953.225 21.225C954.1 19.725 954.7 17.45 955.05 15.275ZM987.025 3.875V8.625H997.025V3.875H987.025ZM985.2 2.075H998.925V10.425H985.2V2.075ZM981.575 13.075H990.475V23.8H988.6V14.875H983.35V24H981.575V13.075ZM993.2 13.075H1002.6V23.85H1000.73V14.875H995V24H993.2V13.075ZM982.375 20.85H989.35V22.65H982.375V20.85ZM994.125 20.85H1001.55V22.65H994.125V20.85ZM1016.45 17.15H1030.55V18.8H1016.45V17.15ZM1024.88 13.65H1026.65V23.975H1024.88V13.65ZM1022.43 0.924999L1024.55 1.35C1023.93 2.475 1023.2 3.75 1022.65 4.55L1021.13 4.125C1021.6 3.2 1022.15 1.875 1022.43 0.924999ZM1022.85 4.35H1024.48V8.425C1024.48 11.425 1023.68 14.8 1018.63 16.975C1018.35 16.65 1017.75 16.15 1017.38 15.9C1022.15 13.875 1022.85 10.9 1022.85 8.375V4.35ZM1009.95 7.875H1016.93V9.525H1009.95V7.875ZM1013.22 1.025H1014.88V8.875H1013.22V1.025ZM1010.05 13.2H1015.65V24H1013.97V14.825H1010.05V13.2ZM1009.15 1.525H1010.8V11.1C1010.8 15.1 1010.53 20.275 1009.1 24.05C1008.73 23.85 1007.98 23.575 1007.48 23.425C1008.93 19.825 1009.15 14.775 1009.15 11.1V1.525ZM1019.23 8.925V11.575H1028.1V8.925H1019.23ZM1019.23 4.9V7.5H1028.1V4.9H1019.23ZM1017.53 3.4H1029.85V13.05H1017.53V3.4ZM1042.85 21.275H1054.93V23H1042.85V21.275ZM1042 3.525H1051.18V5.2H1042V3.525ZM1043.13 0.924999L1045.23 1.35C1043.35 4.6 1040.35 8 1036 10.575C1035.73 10.1 1035.1 9.45 1034.68 9.125C1038.8 6.875 1041.68 3.65 1043.13 0.924999ZM1050.55 3.525H1050.9L1051.25 3.425L1052.5 4.1C1049.5 11.65 1042.45 16.675 1035.65 18.875C1035.43 18.375 1034.95 17.6 1034.55 17.2C1041.03 15.325 1047.95 10.425 1050.55 3.85V3.525ZM1038.88 7.975L1040.28 6.775C1042.25 8.125 1044.65 10.125 1045.8 11.55L1044.28 12.9C1043.23 11.475 1040.85 9.375 1038.88 7.975ZM1054 13.375H1055.93V24.05H1054V13.375ZM1043.7 13.375H1054.95V15.1H1043.7V24H1041.83V14.85L1043.33 13.375H1043.7ZM1074.9 9.575H1084.33V11.25H1074.9V9.575ZM1069.03 21.375H1081.63V23.05H1069.03V21.375ZM1074 6.6H1075.9V15.75H1074V6.6ZM1068.03 14.85H1082.65V24H1080.73V16.55H1069.85V24.05H1068.03V14.85ZM1073.13 1.025H1075.05V5.275H1073.13V1.025ZM1064.8 4.25H1084.68V6.05H1064.8V4.25ZM1063.88 4.25H1065.75V10.725C1065.75 14.575 1065.4 20.225 1063.25 24.025C1062.93 23.7 1062.1 23.175 1061.65 22.975C1063.7 19.375 1063.88 14.325 1063.88 10.725V4.25ZM1099.5 6.725H1101.43V13.275H1099.5V6.725ZM1091.65 8.45H1109.5V10.05H1091.65V8.45ZM1089.18 12.275H1111.88V13.925H1089.18V12.275ZM1089.98 16.125H1111.23V17.775H1089.98V16.125ZM1104.6 13.6H1106.53V21.8C1106.53 22.9 1106.28 23.4 1105.4 23.7C1104.58 23.975 1103.18 24 1101.1 24C1101 23.45 1100.68 22.725 1100.4 22.225C1102.1 22.275 1103.58 22.275 1104.05 22.225C1104.5 22.225 1104.6 22.125 1104.6 21.775V13.6ZM1092.08 3.125H1100.2V4.7H1092.08V3.125ZM1101.73 3.125H1111.63V4.7H1101.73V3.125ZM1092.63 0.899999L1094.42 1.375C1093.45 3.825 1091.93 6.25 1090.38 7.8C1090.03 7.525 1089.25 7 1088.8 6.75C1090.4 5.3 1091.8 3.1 1092.63 0.899999ZM1102.45 0.899999L1104.25 1.325C1103.4 3.7 1101.9 5.95 1100.35 7.4C1100 7.1 1099.23 6.575 1098.8 6.325C1100.38 5.025 1101.73 3 1102.45 0.899999ZM1093.58 4.325L1095.15 3.775C1095.7 4.775 1096.3 6.1 1096.53 6.95L1094.85 7.55C1094.68 6.7 1094.13 5.35 1093.58 4.325ZM1103.98 4.325L1105.5 3.725C1106.33 4.7 1107.28 6.075 1107.65 7L1106.05 7.675C1105.7 6.775 1104.8 5.375 1103.98 4.325ZM1093.58 18.875L1094.95 17.8C1096.55 18.8 1098.4 20.35 1099.25 21.525L1097.8 22.725C1097 21.55 1095.2 19.95 1093.58 18.875ZM1119.05 24.675L1118.48 23.375C1120.53 22.525 1121.65 21.25 1121.65 19.375L1121.18 17.25L1122.53 19.15C1122.18 19.6 1121.68 19.725 1121.2 19.725C1120.18 19.725 1119.33 19.125 1119.33 17.925C1119.33 16.75 1120.23 16.125 1121.23 16.125C1122.63 16.125 1123.38 17.275 1123.38 19.025C1123.38 21.725 1121.68 23.775 1119.05 24.675ZM1152.93 13.1H1154.85C1154.85 13.1 1154.83 13.725 1154.78 13.975C1154.35 19.9 1153.9 22.25 1153.03 23.125C1152.5 23.7 1151.93 23.875 1151 23.95C1150.23 24 1148.65 23.975 1147.05 23.9C1147 23.3 1146.73 22.5 1146.35 21.95C1148.03 22.1 1149.7 22.125 1150.3 22.125C1150.85 22.125 1151.13 22.1 1151.43 21.85C1152.1 21.275 1152.53 19 1152.9 13.4L1152.93 13.1ZM1145.5 7.8H1147.43C1147 10.5 1146.4 13.95 1145.9 16.05L1144.03 15.75C1144.55 13.675 1145.18 10.35 1145.5 7.8ZM1161.6 1.275H1163.48V24H1161.6V1.275ZM1145.55 13.1H1153.5V14.85H1145.3L1145.55 13.1ZM1146.2 7.8H1152.88V3.8H1144.68V2.05H1154.73V9.575H1146.2V7.8ZM1171.18 4.5H1192.75V6.325H1171.18V4.5ZM1180.83 1.025H1182.78V24H1180.83V1.025ZM1181.05 12.125L1182.63 12.75C1180.18 17.025 1175.85 20.9 1171.63 22.875C1171.33 22.4 1170.73 21.65 1170.3 21.275C1174.48 19.575 1178.8 15.925 1181.05 12.125ZM1182.68 12.175C1184.88 16 1189.15 19.6 1193.48 21.25C1193 21.65 1192.4 22.4 1192.08 22.925C1187.78 21 1183.53 17.1 1181.1 12.825L1182.68 12.175ZM1174.5 10.825L1175.75 9.675C1176.93 10.675 1178.48 12.1 1179.25 13L1177.98 14.275C1177.2 13.375 1175.7 11.875 1174.5 10.825ZM1175.55 6.925L1177.38 7.25C1176.5 10.9 1174.75 13.875 1172.43 15.8C1172.13 15.475 1171.4 14.875 1170.95 14.575C1173.23 12.875 1174.8 10.15 1175.55 6.925ZM1186.53 10.875L1187.78 9.775C1189.45 11.05 1191.75 12.925 1192.88 14.075L1191.55 15.375C1190.48 14.175 1188.23 12.25 1186.53 10.875ZM1187.4 6.925L1189.2 7.225C1188.55 10.375 1187.2 13 1185.43 14.75C1185.08 14.45 1184.28 13.925 1183.83 13.7C1185.65 12.175 1186.85 9.725 1187.4 6.925ZM1201.3 9.375H1203.1C1202.8 13.875 1202.05 20.475 1198.73 24.025C1198.4 23.575 1197.83 23.025 1197.35 22.725C1200.45 19.575 1201.08 13.275 1201.3 9.375ZM1202.9 10.325C1203.35 13.975 1204.43 19.225 1207.2 21.825C1206.83 22.15 1206.23 22.9 1205.93 23.375C1203.08 20.375 1201.95 14.875 1201.5 11.2L1202.9 10.325ZM1214.63 9.35H1216.45C1216.18 14.05 1215.43 20.5 1212.1 24.025C1211.78 23.575 1211.18 23.025 1210.73 22.725C1213.83 19.575 1214.4 13.45 1214.63 9.35ZM1216.28 10.35C1216.63 14.25 1217.63 19.725 1220.63 22.425C1220.23 22.775 1219.6 23.525 1219.33 23.975C1216.28 20.9 1215.25 15.15 1214.83 11.25L1216.28 10.35ZM1212.7 3.65V6.925H1217.03V3.65H1212.7ZM1206.73 3.65V6.925H1210.98V3.65H1206.73ZM1200.88 3.65V6.925H1205V3.65H1200.88ZM1199.08 1.975H1218.88V8.6H1199.08V1.975ZM1211.45 9.15L1213.18 9.9C1211.15 12.275 1207.93 14.525 1205.18 15.975C1204.9 15.6 1204.28 14.825 1203.88 14.45C1206.63 13.225 1209.65 11.25 1211.45 9.15ZM1208.08 13.325L1209.4 11.975L1209.93 12.125V23.95H1208.08V13.325ZM1229.9 6.525L1231.15 5.425C1233.03 6.3 1235.33 7.7 1236.45 8.75L1235.13 9.975C1234.05 8.925 1231.78 7.45 1229.9 6.525ZM1241.45 3.125H1241.83L1242.15 3.025L1243.38 3.775C1240.13 9.6 1232.73 13.1 1226.13 14.55C1225.95 14.075 1225.58 13.3 1225.23 12.9C1231.53 11.725 1238.73 8.35 1241.45 3.425V3.125ZM1233.1 3.125H1241.93V4.7H1233.1V3.125ZM1234.95 0.974999L1237.05 1.425C1234.75 4.075 1231.35 6.55 1226.7 8.4C1226.43 7.95 1225.85 7.325 1225.43 7C1229.93 5.425 1233.23 3.075 1234.95 0.974999ZM1233.1 15.7L1234.48 14.625C1236.45 15.65 1238.85 17.225 1240.05 18.425L1238.58 19.625C1237.45 18.45 1235.08 16.775 1233.1 15.7ZM1245.1 11.875H1245.48L1245.83 11.775L1247.05 12.45C1243.9 19.75 1236.1 22.875 1227.93 24.075C1227.8 23.55 1227.43 22.775 1227.13 22.35C1234.85 21.425 1242.4 18.45 1245.1 12.15V11.875ZM1236.98 11.875H1245.6V13.475H1236.98V11.875ZM1239 9.525L1241.08 10C1238.55 12.95 1234.6 15.675 1229.13 17.6C1228.9 17.175 1228.35 16.5 1227.95 16.15C1233.25 14.5 1237.05 11.9 1239 9.525ZM1266.63 9.975H1268.25V13.175H1266.63V9.975ZM1269.6 4.625L1271.13 5.125C1270.55 6.35 1269.93 7.8 1269.43 8.725L1268.28 8.3C1268.73 7.3 1269.33 5.7 1269.6 4.625ZM1264.03 5.225L1265.23 4.8C1265.8 5.875 1266.28 7.325 1266.43 8.225L1265.13 8.7C1265 7.775 1264.52 6.3 1264.03 5.225ZM1261.08 2.2H1273.05V3.875H1262.78V24.05H1261.08V2.2ZM1272.35 2.2H1274.08V21.9C1274.08 22.925 1273.88 23.425 1273.2 23.725C1272.55 23.975 1271.48 24.025 1269.85 24.025C1269.8 23.575 1269.55 22.825 1269.33 22.35C1270.45 22.4 1271.58 22.375 1271.9 22.375C1272.25 22.35 1272.35 22.25 1272.35 21.9V2.2ZM1263.73 8.65H1271.38V10.125H1263.73V8.65ZM1263.53 12.75H1271.53V14.225H1263.53V12.75ZM1264.58 13.575H1266.2V17.775C1266.2 18.425 1266.28 18.625 1266.75 18.625C1267.2 18.625 1269.23 18.625 1269.65 18.625C1270.03 18.625 1270.7 18.6 1271.03 18.525C1271.08 18.95 1271.13 19.65 1271.18 20.025C1270.85 20.15 1270.28 20.15 1269.68 20.15C1269.23 20.15 1267.08 20.15 1266.75 20.15C1264.98 20.15 1264.58 19.55 1264.58 17.75V13.575ZM1255.65 1.025L1257.3 1.65C1256.35 3.5 1255.18 5.75 1254.2 7.125L1252.93 6.575C1253.83 5.125 1255 2.675 1255.65 1.025ZM1258.45 3.875L1260.03 4.6C1258.3 7.375 1255.88 10.925 1254 13.1L1252.85 12.45C1254.73 10.225 1257.08 6.5 1258.45 3.875ZM1251.65 6.225L1252.65 5.025C1254 6.25 1255.53 7.925 1256.18 9.075L1255.1 10.475C1254.48 9.275 1252.98 7.5 1251.65 6.225ZM1257.48 9.6L1258.83 9.025C1259.88 10.675 1260.9 12.825 1261.25 14.2L1259.78 14.875C1259.45 13.475 1258.48 11.25 1257.48 9.6ZM1251.45 12.075C1253.63 11.975 1256.75 11.825 1259.9 11.65V13.225C1256.93 13.425 1253.93 13.6 1251.65 13.75L1251.45 12.075ZM1258.13 15.65L1259.5 15.225C1260.15 16.675 1260.68 18.55 1260.85 19.775L1259.4 20.225C1259.25 19 1258.73 17.1 1258.13 15.65ZM1252.95 15.3L1254.53 15.575C1254.2 17.95 1253.63 20.35 1252.83 21.95C1252.53 21.75 1251.78 21.425 1251.4 21.25C1252.2 19.725 1252.68 17.475 1252.95 15.3ZM1255.6 12.8H1257.25V24H1255.6V12.8ZM1287.33 11.2C1289.53 17.125 1294.38 20.95 1301.83 22.3C1301.4 22.7 1300.88 23.475 1300.63 24C1293.03 22.4 1288.23 18.3 1285.7 11.7L1287.33 11.2ZM1296.55 10.325H1296.9L1297.25 10.225L1298.53 10.8C1296.43 18.35 1290.98 22.175 1284.55 24.025C1284.33 23.525 1283.88 22.8 1283.48 22.425C1289.45 20.925 1294.73 17.225 1296.55 10.675V10.325ZM1279.6 5.175H1301.2V7H1279.6V5.175ZM1286.3 10.325H1296.75V12.15H1285.78L1286.3 10.325ZM1286.3 0.999999H1288.23C1288.05 3.875 1287.63 16.975 1280.38 23.2C1280 22.725 1279.35 22.25 1278.75 21.9C1285.95 16.175 1286.18 3.275 1286.3 0.999999ZM1314.35 9.5V15.25H1320.43V9.5H1314.35ZM1312.58 7.825H1322.3V16.9H1312.58V7.825ZM1307.05 2.025H1327.95V23.975H1325.95V3.925H1308.98V23.975H1307.05V2.025ZM1308.12 20.875H1327.1V22.65H1308.12V20.875ZM1342.68 8.15H1356.23V9.5H1342.68V8.15ZM1345.5 3.95V5.65H1353.38V3.95H1345.5ZM1343.93 2.7H1355.03V6.875H1343.93V2.7ZM1348.5 0.974999H1350.23V8.85H1348.5V0.974999ZM1345.73 14.525V16H1353.15V14.525H1345.73ZM1345.73 17.15V18.65H1353.15V17.15H1345.73ZM1345.73 11.9V13.35H1353.15V11.9H1345.73ZM1344 10.675H1354.93V19.875H1344V10.675ZM1350.55 20.975L1351.7 20.05C1353.43 21.025 1355.35 22.3 1356.5 23.275L1355.1 24.225C1354.03 23.275 1352.18 21.975 1350.55 20.975ZM1346.63 20.125L1348.33 20.7C1347 22.1 1344.75 23.425 1342.85 24.225C1342.6 23.9 1341.98 23.2 1341.6 22.875C1343.45 22.225 1345.48 21.225 1346.63 20.125ZM1334.6 8.3H1336.18V23.975H1334.6V8.3ZM1335.58 11.175H1341.38V12.4H1335.58V11.175ZM1336.1 5.5H1341V6.875H1336.1V5.5ZM1335.53 16.925H1342.08V18.375H1335.53V16.925ZM1335.58 20.025H1342.3V21.55H1335.58V20.025ZM1335.5 8.3H1342.05V15.35H1335.5V14.025H1340.48V9.625H1335.5V8.3ZM1337.25 1.025H1338.2V1.425H1338.75V1.9C1337.75 3.65 1336.18 6.125 1333.88 8.175C1333.6 7.8 1333.05 7.3 1332.65 7.075C1334.8 5.25 1336.35 2.875 1337.25 1.025ZM1337.8 1.025H1339.1C1340.63 2.375 1342.45 4.3 1343.33 5.55L1342.15 6.85C1341.3 5.575 1339.6 3.475 1338.1 2.2H1337.8V1.025ZM1367.68 4.475C1369.78 13.6 1374.25 20.025 1383.53 22.225C1383.1 22.625 1382.53 23.45 1382.23 23.975C1372.73 21.45 1368.35 14.775 1366.03 4.85L1367.68 4.475ZM1361.48 2.35H1375.48V4.175H1361.48V2.35ZM1380.1 8.4H1380.45L1380.8 8.325L1382.08 8.825C1379.95 17.65 1374.03 22.05 1367 24.025C1366.78 23.55 1366.33 22.775 1365.93 22.375C1372.53 20.775 1378.25 16.5 1380.1 8.75V8.4ZM1375.05 2.35H1375.28L1375.63 2.25L1377.05 2.525C1376.5 5.1 1375.63 8.725 1374.85 11.475L1372.9 11.2C1373.73 8.425 1374.63 4.575 1375.05 2.575V2.35ZM1374.7 8.4H1380.53V10.175H1374.3L1374.7 8.4ZM1365.9 2.925H1367.8V6.275C1367.8 11.275 1367.3 18.1 1361.48 23.55C1361.2 23.075 1360.55 22.325 1360.13 21.975C1365.5 17 1365.9 10.75 1365.9 6.3V2.925ZM1396.03 4.025H1401.63V5.15H1396.03V4.025ZM1390.25 12.5H1407.93V13.8H1390.25V12.5ZM1392.25 20.125H1405.45V21.075H1392.25V20.125ZM1392.25 22.225H1405.45V23.325H1392.25V22.225ZM1387.68 15.55H1410.1V16.875H1387.68V15.55ZM1387.25 8.35C1388.93 8.25 1391.23 8.075 1393.65 7.85L1393.7 9.1C1391.48 9.35 1389.33 9.6 1387.58 9.775L1387.25 8.35ZM1394.23 9.85C1396.13 9.7 1398.93 9.4 1401.78 9.1L1401.83 10.325C1399.22 10.675 1396.6 11 1394.58 11.25L1394.23 9.85ZM1393.68 6.45L1395.18 6.675C1394.18 10.075 1391.58 12.175 1388.35 13.45C1388.18 13.125 1387.73 12.525 1387.4 12.225C1390.5 11.2 1392.85 9.375 1393.68 6.45ZM1408.63 1.8H1408.88L1409.1 1.725L1410.23 2.3C1409.6 3.525 1408.88 4.7 1408.18 5.85C1409.6 6.925 1410.25 7.95 1410.25 8.825C1410.28 9.725 1409.9 10.325 1409.33 10.675C1409.03 10.85 1408.58 10.975 1408.23 11.025C1407.73 11.075 1406.98 11.075 1406.33 11.025C1406.3 10.625 1406.1 10.05 1405.83 9.675C1406.55 9.725 1407.18 9.75 1407.63 9.725C1407.85 9.7 1408.13 9.675 1408.28 9.6C1408.6 9.425 1408.75 9.1 1408.75 8.675C1408.73 7.95 1408.08 7.15 1406.58 6.1C1407.43 4.575 1408.13 3.125 1408.63 2.025V1.8ZM1387.55 4.35L1388.43 3.3C1389.6 4.075 1391.03 5.25 1391.73 6.05L1390.85 7.275C1390.15 6.425 1388.73 5.2 1387.55 4.35ZM1390.95 0.974999L1392.33 1.55C1391.53 2.775 1390.58 4.125 1389.8 5.025L1388.7 4.55C1389.45 3.575 1390.45 2.025 1390.95 0.974999ZM1393.03 3.05L1394.38 3.675C1393.05 5.5 1391.28 7.775 1389.83 9.175L1388.75 8.625C1390.15 7.175 1391.98 4.775 1393.03 3.05ZM1403.63 1.8H1409.08V3.175H1405.2V12.1H1403.63V1.8ZM1395.43 1.825H1396.95V10.4H1395.43V1.825ZM1396.05 1.825H1402.35V7.4H1396.05V6.275H1400.85V2.925H1396.05V1.825ZM1397.88 11.075H1399.68V13.3H1397.88V11.075ZM1391.25 17.875H1406.73V23.975H1404.93V19H1392.97V24.025H1391.25V17.875ZM1393.48 14.075L1394.98 13.575C1395.53 14.1 1396.08 14.875 1396.28 15.425L1394.73 15.975C1394.53 15.4 1394 14.625 1393.48 14.075ZM1399.3 8.175L1400.4 7.525C1401.58 8.425 1402.8 9.775 1403.35 10.725L1402.18 11.45C1401.65 10.475 1400.43 9.125 1399.3 8.175ZM1402.83 13.4L1404.53 13.95C1403.9 14.775 1403.25 15.525 1402.75 16.075L1401.43 15.575C1401.9 14.95 1402.53 14 1402.83 13.4ZM1426.2 9.575H1435.83V10.675H1426.2V9.575ZM1426.2 12.075H1435.83V13.175H1426.2V12.075ZM1425.48 14.625H1436.88V15.9H1425.48V14.625ZM1431.3 4.85L1433 5.325C1432.48 6.225 1431.93 7.1 1431.48 7.725L1430.13 7.3C1430.53 6.575 1431.05 5.525 1431.3 4.85ZM1422.4 4.725L1423.98 5.2C1422.68 7.8 1420.75 10.375 1418.88 12.05C1418.63 11.775 1418 11.125 1417.63 10.85C1419.48 9.35 1421.3 7.05 1422.4 4.725ZM1426.8 4.675L1428.4 5.125C1427.35 7.525 1425.7 9.975 1424.1 11.55C1423.83 11.275 1423.18 10.75 1422.8 10.5C1424.4 9.025 1425.9 6.85 1426.8 4.675ZM1430.18 7.55H1431.78V15.125H1430.18V7.55ZM1423.75 18.125H1425.48V21.625C1425.48 22.175 1425.68 22.275 1426.73 22.275C1427.23 22.275 1429.78 22.275 1430.43 22.275C1431.28 22.275 1431.43 22.025 1431.5 20.1C1431.88 20.375 1432.6 20.625 1433.05 20.75C1432.88 23.225 1432.35 23.825 1430.6 23.825C1430.13 23.825 1427.03 23.825 1426.55 23.825C1424.3 23.825 1423.75 23.375 1423.75 21.625V18.125ZM1425.1 17.075L1426.2 16.025C1427.7 16.7 1429.58 17.75 1430.5 18.575L1429.33 19.75C1428.45 18.925 1426.63 17.8 1425.1 17.075ZM1432.28 18.5L1433.75 17.775C1435.23 19.225 1436.8 21.25 1437.48 22.65L1435.88 23.475C1435.28 22.1 1433.73 20 1432.28 18.5ZM1420.75 18.05L1422.28 18.575C1421.7 20.35 1420.83 22.3 1419.28 23.425L1417.85 22.5C1419.28 21.475 1420.25 19.7 1420.75 18.05ZM1426.5 7H1436.48V8.225H1425.6L1426.5 7ZM1425.48 8.4L1427.08 7.025V15.375H1425.48V8.4ZM1425.75 1.025H1427.68V3.9H1425.75V1.025ZM1417.23 2.95H1437.3V4.55H1417.23V2.95ZM1416.2 2.95H1417.95V10.5C1417.95 14.4 1417.65 20.15 1415.68 24.025C1415.38 23.7 1414.63 23.125 1414.23 22.95C1416.05 19.3 1416.2 14.175 1416.2 10.5V2.95ZM1420.75 8.575L1422.35 6.975L1422.38 7.025V16.425H1420.75V8.575ZM1445.48 15.925C1447.58 15.925 1449.28 17.625 1449.28 19.725C1449.28 21.825 1447.58 23.525 1445.48 23.525C1443.38 23.525 1441.65 21.825 1441.65 19.725C1441.65 17.625 1443.38 15.925 1445.48 15.925ZM1445.48 22.25C1446.88 22.25 1448 21.125 1448 19.725C1448 18.325 1446.88 17.2 1445.48 17.2C1444.08 17.2 1442.93 18.325 1442.93 19.725C1442.93 21.125 1444.08 22.25 1445.48 22.25Z" fill="white"/>
</g>
<defs>
<filter id="filter0_d_183_36" x="0.599976" y="0.899902" width="1452.68" height="31.7749" filterUnits="userSpaceOnUse" color-interpolation-filters="sRGB">
<feFlood flood-opacity="0" result="BackgroundImageFix"/>
<feColorMatrix in="SourceAlpha" type="matrix" values="0 0 0 0 0 0 0 0 0 0 0 0 0 0 0 0 0 0 127 0" result="hardAlpha"/>
<feOffset dy="4"/>
<feGaussianBlur stdDeviation="2"/>
<feComposite in2="hardAlpha" operator="out"/>
<feColorMatrix type="matrix" values="0 0 0 0 0 0 0 0 0 0 0 0 0 0 0 0 0 0 0.25 0"/>
<feBlend mode="normal" in2="BackgroundImageFix" result="effect1_dropShadow_183_36"/>
<feBlend mode="normal" in="SourceGraphic" in2="effect1_dropShadow_183_36" result="shape"/>
</filter>
</defs>
</svg>
