<svg width="40" height="39" viewBox="0 0 40 39" fill="none" xmlns="http://www.w3.org/2000/svg">
<g clip-path="url(#clip0_125_1609)">
<path d="M38.6521 1.69562H1.34785C0.879852 1.69562 0.5 2.07547 0.5 2.54347V5.08695H39.5V2.54347C39.5 2.07547 39.1201 1.69562 38.6521 1.69562Z" fill="#002448"/>
<path d="M0.5 36.4565C0.5 36.9245 0.879852 37.3044 1.34785 37.3044H3.04348C3.51148 37.3044 3.89133 36.9245 3.89133 36.4565C3.89133 27.5747 11.1181 20.3478 20 20.3478C28.8818 20.3478 36.1087 27.5747 36.1087 36.4565C36.1087 36.9245 36.4885 37.3044 36.9565 37.3044H38.6521C39.1201 37.3044 39.5 36.9245 39.5 36.4565V6.78259H0.5V36.4565ZM29.3261 11.8695C29.3261 9.99922 30.8471 8.47822 32.7174 8.47822C34.5878 8.47822 36.1088 9.99922 36.1088 11.8695V16.1086C36.1088 16.5766 35.7289 16.9565 35.2609 16.9565H30.1739C29.7059 16.9565 29.3261 16.5766 29.3261 16.1086V11.8695ZM20.8478 11.8695C20.8478 9.99922 22.3688 8.47822 24.2391 8.47822C26.1095 8.47822 27.6305 9.99922 27.6305 11.8695V16.1086C27.6305 16.5766 27.2506 16.9565 26.7826 16.9565H21.6957C21.2277 16.9565 20.8478 16.5766 20.8478 16.1086V11.8695ZM12.3695 11.8695C12.3695 9.99922 13.8905 8.47822 15.7609 8.47822C17.6312 8.47822 19.1522 9.99922 19.1522 11.8695V16.1086C19.1522 16.5766 18.7723 16.9565 18.3043 16.9565H13.2174C12.7494 16.9565 12.3695 16.5766 12.3695 16.1086V11.8695ZM3.89133 11.8695C3.89133 9.99922 5.41233 8.47822 7.28266 8.47822C9.15299 8.47822 10.6739 9.9993 10.6739 11.8695V16.1086C10.6739 16.5766 10.2941 16.9565 9.82605 16.9565H4.7391C4.2711 16.9565 3.89125 16.5766 3.89125 16.1086L3.89133 11.8695Z" fill="#002448"/>
</g>
<defs>
<clipPath id="clip0_125_1609">
<rect width="39" height="39" fill="white" transform="translate(0.5)"/>
</clipPath>
</defs>
</svg>
