<svg width="39" height="39" viewBox="0 0 39 39" fill="none" xmlns="http://www.w3.org/2000/svg">
<path d="M36.2154 10.9549C35.2707 8.61588 33.8375 6.43827 31.8558 4.55477C30.2789 3.05556 28.4012 1.91725 26.3666 1.15301C24.3326 0.387334 22.1455 0 19.9679 0C17.819 0 15.6801 0.377812 13.7049 1.13466C11.729 1.89013 9.91956 3.0225 8.40945 4.53276C7.0379 5.90431 5.97804 7.53842 5.26439 9.29723C4.54921 11.0547 4.17955 12.9337 4.17955 14.7894C4.17955 16.4206 4.46489 18.0306 5.04502 19.5261C5.6259 21.0208 6.49944 22.4012 7.68909 23.5923C8.86625 24.7695 10.3053 25.6966 11.8639 26.3251C13.421 26.9545 15.097 27.286 16.734 27.2845C18.096 27.2845 19.4295 27.0571 20.6544 26.5936C21.8807 26.1294 22.9992 25.4319 23.9542 24.4783C24.8505 23.5805 25.5186 22.5493 25.9668 21.4462C26.4128 20.3445 26.6356 19.1702 26.6356 17.9961C26.6356 16.8239 26.4112 15.6533 25.9646 14.5539C25.5179 13.4545 24.8505 12.4239 23.9542 11.5284C23.2221 10.7971 22.4037 10.2669 21.5506 9.91773C20.6969 9.56787 19.805 9.39991 18.9351 9.39991C18.0345 9.39991 17.1579 9.58174 16.3725 9.92352C15.5855 10.2668 14.8902 10.7685 14.3364 11.4153C13.396 12.5126 12.912 13.8402 12.912 15.101C12.9134 15.706 13.0226 16.2958 13.2457 16.8488C13.4687 17.4025 13.8039 17.9226 14.2718 18.392C14.6371 18.7558 15.0192 19.0015 15.4116 19.1621C15.8033 19.3227 16.2067 19.3968 16.6138 19.3968C17.0736 19.3968 17.5357 19.3 17.9655 19.1181C18.3954 18.9369 18.7906 18.6722 19.1141 18.3487C19.2908 18.1719 19.4273 17.9475 19.5219 17.6857C19.6165 17.4245 19.6635 17.1275 19.6628 16.8444C19.6635 16.6112 19.6305 16.3875 19.5799 16.2122C19.533 16.0391 19.4647 15.9144 19.4317 15.8718C18.8567 15.6063 18.5779 14.9359 18.809 14.3359C19.0488 13.7096 19.753 13.3957 20.3793 13.6362C20.7372 13.7734 21.0181 13.997 21.2338 14.2391C21.4502 14.4826 21.6086 14.7496 21.7333 15.0276C21.9783 15.585 22.0927 16.1989 22.0948 16.8443C22.0948 17.3863 22.009 17.9504 21.811 18.5049C21.6122 19.0594 21.2976 19.605 20.8333 20.0679C20.281 20.6202 19.626 21.0573 18.9094 21.3595C18.1935 21.6602 17.4131 21.8274 16.6137 21.8282C15.9067 21.8282 15.1856 21.6969 14.4918 21.4137C13.798 21.1307 13.1371 20.695 12.5526 20.1112C11.8558 19.4144 11.3328 18.6105 10.9903 17.7568C10.6456 16.9031 10.4813 16.0009 10.4813 15.101C10.482 13.2211 11.1913 11.3508 12.488 9.83546C13.2941 8.89299 14.2982 8.17492 15.4006 7.69382C16.5052 7.21409 17.7101 6.96912 18.935 6.96912C20.1181 6.96912 21.321 7.19657 22.4702 7.66738C23.6188 8.13675 24.7147 8.84904 25.6733 9.80911C26.8013 10.9371 27.6515 12.2449 28.2184 13.6392C28.7847 15.0342 29.0677 16.5151 29.0677 17.9959C29.0677 19.479 28.7854 20.962 28.2199 22.3592C27.6536 23.7565 26.8043 25.0664 25.6733 26.1974C24.4646 27.4076 23.0387 28.2922 21.5138 28.8686C19.9897 29.4451 18.3651 29.7165 16.7339 29.7165C14.7713 29.7165 12.7953 29.3249 10.9521 28.5797C9.50282 27.9944 8.13645 27.1861 6.92326 26.1762L1.39014 32.401C3.3249 34.4267 5.62583 36.0074 8.12693 37.1127C10.9419 38.3581 14.0085 39.0006 17.0692 38.9998C19.7148 38.9998 22.3538 38.5209 24.8277 37.5447C27.3031 36.5684 29.6128 35.0963 31.6122 33.0977C33.5206 31.1907 35.0213 28.8643 36.0452 26.3258C37.0669 23.7873 37.6104 21.0382 37.6096 18.2966C37.6097 15.7913 37.1579 13.2931 36.2154 10.9549Z" fill="#002448"/>
</svg>
