<svg width="40" height="39" viewBox="0 0 40 39" fill="none" xmlns="http://www.w3.org/2000/svg">
<g clip-path="url(#clip0_125_1603)">
<path d="M2.85693 30.0404C5.7243 30.0404 5.7243 30.9962 8.59167 30.9962C11.459 30.9962 11.459 30.0404 14.3264 30.0404C17.1938 30.0404 17.1938 30.9962 20.0611 30.9962C22.9285 30.9962 22.9285 30.0404 25.7959 30.0404C28.6632 30.0404 28.6632 30.9962 31.5306 30.9962C34.398 30.9962 34.398 30.0404 37.2653 30.0404" stroke="#002448" stroke-width="4" stroke-linecap="round" stroke-linejoin="round"/>
<path d="M2.85693 23.3499C6.33601 22.375 6.68009 19.5267 7.1771 16.0477C7.88438 10.982 14.6705 4.0812 23.7696 10.9246C17.4232 12.4539 16.238 19.2591 20.0611 20.6928C23.8843 22.1265 27.306 17.2329 32.6584 21.0369C33.9493 22.2211 35.5446 23.022 37.2653 23.3499" stroke="#002448" stroke-width="4" stroke-linecap="round" stroke-linejoin="round"/>
</g>
<defs>
<clipPath id="clip0_125_1603">
<rect width="39" height="39" fill="white" transform="translate(0.5)"/>
</clipPath>
</defs>
</svg>
